<?xml version="1.0" encoding="UTF-8"?>
<svg xmlns="http://www.w3.org/2000/svg" viewBox="0 0 300 500">
  <g id="Layer_1" data-name="Layer 1">
    <path d="M83.97,40.71c3-.08,10.64,1,13.94,1.37,6.48.75,12.97,1.28,19.48,1.59,23.68,1.32,47.42,1.19,71.08-.39,5.22-.31,23.58-2.93,26.5-1.26,1.7,4.23,2.64,10.29,3.75,14.81,4.54,18.48,10.79,36.37,15.06,54.92,5.07,22.05,8.51,44.39,12.25,66.7l22.46,142.13,14.1,84.45,3.62,21.91c.39,2.24,3.18,16.43,1.88,17.35-3.23,2.28-9.95,3.28-13.94,4.71-14.09,5.04-28.19,12.78-43.46,12.89-4.25,0-6.2-.96-8.89-3.92-3.49-.59-7.35-1.06-10.84-.28-2.09.14-5.1.69-7.24,1.03-1.18,10.65-8.86,9.76-17.86,10.46-13.48,1.05-27.46-1.84-40.96-1.73-17.92.14-35.97,3.16-53.91,2.11-6.98-.82-14.59-.59-21.43-2.31-10.41-2.62-13.72-1.78-11.8-12.76-7.9-.49-41.41-5.22-45.64-9.95-.22-5.18,3.27-23.71,4.29-29.88l8.62-54.54c6.86-43.94,13.49-87.92,19.88-131.94,4.73-31.42,9.5-64.63,15.57-95.79,2.23-11.54,4.7-23.03,7.43-34.46,3.73-15.22,9.73-30.34,12.67-45.84.54-2.83,1.72-9.36,3.39-11.35ZM12.51,444.64c13.12,4,32.5,8.32,46.16,9.33-.47,3.07-.71,5.19-.88,8.28,25.16,11.05,55.54,5.31,81.88,4.18,19.49-.84,39.45,4.77,58.69-.21,3.94-1,3.82-4.93,4.18-8.17,2.77-.62,5.06-1.13,7.9-1.49,15.03-1.69,11.95,4.74,23.05,4.25,10.87-.48,26.71-7.72,36.9-11.51,5.79-2.15,11.93-3.86,17.86-5.63-2.13-9.51-3.65-20.65-5.29-30.42l-9.18-54.87-27.24-170.82c-3.99-23.51-7.62-47.18-12.64-70.5-3.98-18.49-9.83-36.17-14.86-54.39-1.02-3.68-3.78-18.89-5.64-20.25-3.41-.35-13.01.94-17.12,1.31-6.57.55-13.16.96-19.75,1.21-29.65,1.37-62.84,1-92.17-3.45-2.39,4.79-3.54,17.27-5.51,23.05-10.81,31.73-16.7,63.54-22.33,96.55-6.16,37.35-11.89,74.76-17.2,112.25l-26.79,171.28Z" fill="var(--muted)"/>
    <path d="M84.34,41.52c29.33,4.45,62.52,4.83,92.17,3.45,6.59-.25,13.18-.65,19.75-1.21,4.11-.38,13.71-1.66,17.12-1.31,1.86,1.36,4.62,16.57,5.64,20.25,5.03,18.22,10.88,35.9,14.86,54.39,5.01,23.31,8.65,46.99,12.64,70.5l27.24,170.82,9.18,54.87c1.64,9.77,3.16,20.91,5.29,30.42-5.93,1.77-12.07,3.48-17.86,5.63-10.19,3.79-26.03,11.03-36.9,11.51-11.1.49-8.02-5.94-23.05-4.25-2.84.36-5.12.87-7.9,1.49-.36,3.23-.24,7.16-4.18,8.17-19.23,4.98-39.2-.64-58.69.21-26.34,1.13-56.72,6.87-81.88-4.18.17-3.1.41-5.21.88-8.28-13.65-1.02-33.04-5.33-46.16-9.33l26.79-171.28c5.3-37.48,11.04-74.9,17.2-112.25,5.63-33,11.52-64.81,22.33-96.55,1.97-5.78,3.13-18.26,5.51-23.05ZM13.59,443.9c1.88.44,4.13,1.06,6,1.62,12.97,3.84,25.85,5.71,39.16,7.73.89-7.15,1.36-16.15,1.89-23.39l3.47-49.67,4.59-68.96c.72-11.39,2-24.44,2.26-35.69,1.08-7.34.85-15.87,1.62-23.37.61-5.95.24-12.49,1.5-18.34.31,7.54-1.84,27.75-1,32.57l-.56.75c-.42,7.77-4.29,52.84-3.03,57.29-.31,1.34,0,1.07.02,1.8.12,8.96-1.02,19.7-1.65,28.55l-3.38,53.24c-.05.77-1.04,12.07-1.19,11.49-1.49,1.94-4.13,37.6-4.11,42.06,7.74,3.41,14.54,4.63,22.96,5.44,20.96,2.07,35.47-.36,56.4-1.6,10.76-.64,23.66,1.04,34.54,1.81,3.06.63,7.86.9,10.85,0,5.62-.45,11.13-.61,16.34-2.85.34-.6.61-1.22.79-1.89,1.07-4.1-2.42-63.45-3.29-70.68-.12-.99-.3-1.61-.79-2.47-.97-3.23-1.53-26.08-.45-28.24l.6.03c1.46,5.29,2.2,22.35,2.6,28.57l3.31,67.27c2.69-.49,12.86-1.73,13.02-1.81,7.13.45,7.27,2.42,10.07,3.98,13.92,3.09,29.43-5.6,42.26-10.13,6.29-2.22,12.31-4.12,18.48-6.11-3.62-17.71-6.56-39.04-9.64-57.17l-29.71-185.76c-4.45-26.66-8.46-53.63-14.15-80.04-4.15-19.29-10.04-39.24-15.76-58.18-29.72,5.31-64.06,5.03-94.23,4.02-14.32-.48-28.41-2.44-42.62-4.05-4.34,14.29-9.11,29.26-12.51,43.73-4.03,17.15-7.19,34.99-10.2,52.34-5.35,31.75-10.28,63.58-14.79,95.46l-18.84,123.97c-3.4,22.27-7.01,44.5-10.84,66.7ZM213.58,43.31c-22.39,3.37-48.08,3.88-70.62,3.57-16.05-.22-42.24-.42-57.75-3.68-1.93,3.93-2.53,12.8-3.78,17.22,33.23,4.44,65.1,6.56,98.57,4.13,9.67-.7,24.15-1.5,33.55-3.59,1.84-.22,2.39.08,3.56-1.09-1.86-5.63-2.4-10.72-3.52-16.56Z" fill="var(--black)"/>
    <path d="M80.78,61.69c14.21,1.61,28.3,3.57,42.62,4.05,30.18,1.01,64.51,1.29,94.23-4.02,5.72,18.94,11.61,38.89,15.76,58.18,5.69,26.41,9.69,53.38,14.15,80.04l29.71,185.76c3.07,18.12,6.02,39.46,9.64,57.17-6.17,1.99-12.2,3.89-18.48,6.11-12.83,4.53-28.34,13.22-42.26,10.13-3.03-.67-1.05-10.68-4.21-13.14-3.88-41.05-7.35-82.13-10.41-123.25-2.75.27-5.85.81-8.61,1.26-16.92,2.75-33.78,2.85-50.79,3.86-.5,12.09.03,27.72.04,40.08.13,29.41.09,58.83-.13,88.25,17.93,2.35,30.94,3.61,48.43-.9-1.72-12.79-1.44-30.36-2.61-43.58-.24-2.7-1.23-20.37-.87-22.37.49.87.67,1.48.79,2.47.87,7.23,4.36,66.58,3.29,70.68-.18.67-.45,1.29-.79,1.89-5.21,2.24-10.72,2.41-16.34,2.85-2.99.91-7.79.64-10.85,0-10.88-.77-23.78-2.45-34.54-1.81-20.93,1.24-35.43,3.66-56.4,1.6-8.42-.8-15.23-2.02-22.96-5.44-.02-4.46,2.62-40.11,4.11-42.06.98,6.14-2.98,27.77-1.67,32.5,3.08,2.57,15.04,4.8,19.4,5.55.49-15.31,1.54-30.43,2.31-45.71,1.63-29.42,2.83-58.86,3.6-88.32-4.66-.49-11.59-2.39-15.96-2.3-1.1.82-1.02,1.62-1.48,3.19-1.26-4.45,2.61-49.51,3.03-57.29.36.74.99,2.18.92,3-1.34,16.01-1.62,32.29-3.28,48.26,6.03,1.48,11.07,1.63,17.02,2.77.1-9.35.84-19.76,1.3-29.16.91-20.24,2.01-40.47,3.28-60.69.95-19.48,2.17-38.95,3.67-58.4.59-8.09,1.12-20.01,2.25-27.8-5.58-.33-11.28-1.01-16.9-1.43.04,6.03-.9,13.57-1.13,19.75-.5,13.4-1.73,26.93-2.35,40.28l-2.58,43.91c-.28,4.71-.06,14.63-1.64,18.73-.84-4.82,1.31-25.03,1-32.57-1.27,5.84-.89,12.39-1.5,18.34-.77,7.5-.54,16.03-1.62,23.37-.26,11.25-1.53,24.31-2.26,35.69l-4.59,68.96-3.47,49.67c-.54,7.24-1.01,16.25-1.89,23.39-13.31-2.02-26.19-3.89-39.16-7.73-1.87-.55-4.11-1.18-6-1.62,3.83-22.2,7.44-44.43,10.84-66.7l18.84-123.97c4.51-31.88,9.44-63.71,14.79-95.46,3.01-17.35,6.17-35.2,10.2-52.34,3.4-14.47,8.17-29.44,12.51-43.73ZM60.12,316.65l7.07,1.4c.58-13.82,2.17-28.43,2.78-42.18-.3-2.5,1.1-20.51,1.41-24.12.94-10.76,1.02-23.33,2.41-33.74,1.96-24.87,3.57-49.78,4.81-74.7-4.54-.58-8.3-1.28-12.8-2.18-1.82,42.06-2.3,84.88-3.84,127.13l-1.07,30.38c-.17,5.22-.2,13.06-.77,18.01ZM89.65,321.32c17.39,2.46,32.73,3.37,50.06,4.02,3.16-.04,6.46-.03,9.6-.16l-.87-126.38-.26-34.11c-.05-4.91.07-11.94-.33-16.67-11.17.02-23.04-.82-34.24-1.4-2.28-.12-11.63-.48-13.64-.82-4.46,58.45-7.9,116.97-10.31,175.53ZM151.99,325.15c5.27.2,9.54-.28,14.67-.44,9.45-.57,18.88-1.34,28.29-2.31,5.11-.57,11.5-1.77,16.4-2.02l-12.22-156.62c-.32-3.61-.1-14.81-1.41-17.25-.93-.19-1-.27-1.92-.11-15.06,1.04-30.16,1.61-45.26,1.69.41,58.86,1.56,118.27,1.44,177.06ZM83.58,457.73c17.12,2.7,39.25-1.71,58.01-1.75l7.84.06c.23-24.13.28-48.27.14-72.4.03-17.85.55-38.25-.17-56-16.04.27-32.08-.5-48.02-2.31-2.75-.31-9.71-.97-12.13-1.53.17,5.54-.24,11.56-.48,17.12-1.59,36.22-2.94,72.45-4.9,108.65-.15,2.69-.33,5.48-.29,8.16ZM200.72,146.13c.1,11.06,12.85,172.58,13.57,173.67h.32c8.6-1.14,20.73-3.68,28.79-4.2-1.29-9.56-1.77-22.98-2.61-32.92l-7.45-98.86c-.75-9.27-1.55-18.53-2.42-27.79-.27-2.96-.72-10.15-1.21-12.82-9.73,1.14-19.57,1.83-29,2.93ZM62.62,138.16c6.8,1.58,18.18,2.69,25.45,3.64,3.06.25,6.58.64,9.62.75,1.74-13.04,1.98-27.08,3.23-40.28,1.15-12.13,2.69-24.42,3.56-36.54-7.66-.98-15.32-1.9-22.99-2.77-8.03,25.88-13.61,48.61-18.87,75.19ZM66.77,320.42c-2.29-.49-4.61-1.01-6.92-1.38.5,4.97-.75,25.35-1.01,31.36l-3.19,70.83c-.31,6.88-.68,13.76-1.11,20.64-.17,2.6-1.42,7.65.11,9.32,1.62.35.99.33,2.7-.35.85-1.33.58-1.54.63-3.26,1.38-10.46,1.89-21.68,2.61-32.25l2.98-42.8c.8-10.84,1.5-21.68,2.11-32.53.4-6.12,1.12-13.55,1.09-19.59ZM197.95,463.94c1.57-1.18,2.82-2.84,2.63-4.91-1.32-.93-17.19,2.29-20.76,2.08-5.57-.32-11.09-.95-16.61-1.56-6.01-.62-12.04-1.03-18.08-1.21-14.2-.44-27.25,1.68-41.32,2.74-5.78.44-14.78-.78-19.95-.17-.91,1.38-.85,3.09-.83,4.82,16.49,2.49,37.72-.92,54.42-1.52,22.54-.81,38.06,4.51,60.49-.27ZM16.27,435.98c-.48,2.33-.84,4.33-1.17,6.69,8.24,2.87,27.87,7.4,36.39,8.08-.03-2.23-.02-3.36.24-5.57-11.99-2.95-23.63-4.94-35.46-9.2ZM40.74,313.38c5.7.96,11.54,1.86,17.16,3.16.06-19.08,6.71-171.41,4.56-176.17-1.23,4.16-2.34,11.64-3.11,16.08-1.86,10.93-3.62,21.88-5.28,32.84-6.43,40.64-11.7,82.76-18.65,123l5.32,1.09ZM80.71,460c-7.59-1.22-13.21-3.39-19.86-4.61-.23,1.8-.65,3.58.04,5.24,2.71,2.42,15.94,4.87,19.57,4.88.1-1.84.18-3.68.26-5.52ZM283.45,436.76c-7.65,1.24-19.7,6.44-26.81,9.66.31,1.36.66,4.06,1.61,4.83l.8.02c5.08-2.04,10.21-3.94,15.4-5.69,2.96-1,7.87-2.34,10.46-3.74.53-1.35.28-3.85-.68-4.98l-.78-.1ZM40.58,440.34c3.73.85,7.45,1.74,11.17,2.67,2.59-30.8,2.99-62.94,4.53-93.85l.93-20.31c.1-2.42.14-7.81.56-9.84-6.51-1.43-15.61-3.05-22.25-3.97-1.51,4.66-4.3,26.55-5.24,32.5-4.37,28.75-8.98,57.46-13.83,86.12,7.97,2.51,16.02,4.74,24.14,6.69ZM261.14,312.07c1.67-.37,1.95-.09,2.62-1.11l-17.89-114.67-6.03-36.03c-.49-2.89-2.21-15.85-3.46-17.35-1.45-.81-2.53-.5-4.23-.34,5.25,57.36,9.81,114.78,13.69,172.24,4.95-.87,10.42-1.72,15.29-2.75ZM214.64,63.41c-5.82.92-15.11,2.06-20.95,2.29,2.2,24.47,5.78,53.79,6.69,77.84,3.99-.36,11.61-.81,15.29-1.43,7.17-.5,13.78-1.83,20.59-2.37-1.71-9.33-3.63-18.62-5.76-27.86-1.17-4.95-12.83-47.92-13.83-48.73-.82.06-1.23.03-2.03.26ZM254.34,447.5c-11.34,4.9-16.44,6.57-28.41,8.21-.02,1.06.45,1.85,1.18,2.61,8.17.81,19.94-1.3,27.09-5.62,1.66-1,1.11-3.14.79-4.7l-.65-.5ZM150.38,145.28c3.87.07,7.74.08,11.6.04,10.82.1,25.13-.92,36.03-1.61-.78-5.42-.97-12.11-1.45-17.71l-3.19-35.6c-.71-7.8-1.34-16.72-2.56-24.38l-5.5.25c-11.89.82-23.8,1.23-35.71,1.23-.24,7.94-.1,16.23.17,24.17.6,17.81-.02,35.83.62,53.6ZM147.98,145.33l-.68-50.57c-.12-8.75-.55-18.55-.21-27.21-7.18-.1-33-.61-39.39-1.93-1.18,5-1.5,9.99-2.09,15.07-2.4,20.72-3.52,41.53-5.28,62.3,10.18,1.22,29.86,2.17,40.44,2.4l7.21-.05ZM263.9,313.68c-4.37,1.53-13.34,2.81-18.27,3.73,1.55,8.03,2.75,30.14,3.45,39.43,1.32,19,2.89,37.99,4.7,56.95.89,9.82,1.67,20.48,2.97,30.2,2.15-1.02,4.38-2.12,6.56-3.06,4.12-1.76,18.19-5.82,20.43-7.37.12-4.19-19.39-119.23-19.83-119.89ZM213.8,322.46c4.73,43.12,6.75,87.6,11.37,131.27,10.87-2.08,18.77-4.41,29.14-8.52-4.65-40.43-7.99-86.07-10.69-126.86l-.66-.52c-9.3,1.87-19.7,3.33-29.16,4.63Z" fill="var(--muted)"/>
    <path d="M173.08,467.23h10.85c-2.99.9-7.79.63-10.85,0Z" fill="var(--muted)"/>
  </g>
  <g id="ap-">
    <circle id="ap-wb-left" cx="85.64" cy="43.17" r="2" fill="none"/>
    <circle id="ap-wb-right" cx="212.26" cy="43.17" r="2" fill="none"/>
    <circle id="ap-waist-left" cx="81.43" cy="60.43" r="2" fill="none"/>
    <circle id="ap-waist-right" cx="217.28" cy="58.99" r="2" fill="none"/>
    <circle id="ap-hip-right" cx="236.26" cy="139.74" r="2" fill="none"/>
    <circle id="ap-hip-left" cx="62.62" cy="138.16" r="2" fill="none"/>
    <circle id="ap-hem-left" cx="12.13" cy="444.51" r="2" fill="none"/>
    <circle id="ap-hem-center" cx="149.32" cy="466.63" r="2" fill="none"/>
    <circle id="ap-hem-right" cx="286.88" cy="442.87" r="2" fill="none"/>
  </g>
</svg>