<?xml version="1.0" encoding="UTF-8"?>
<svg xmlns="http://www.w3.org/2000/svg" viewBox="0 0 300 500">
  <g id="Layer_1" data-name="Layer 1">
    <path d="M197.26,430.47c3.5,2.38,3.68,3.11,3.33,7.01-2.96,3.98-5.03,3.74-9.11,1.04.01-3.65-.59-5.14,2.69-7.3,1.75,1.2,1.36,1.59,2.19,4.19.51-.32.68-.73.97-1.26l-.31,1.23-.52-1.91,1.02-1.6-.21.7-.04-2.11Z" fill="var(--off-white)"/>
    <path d="M197.48,414.88c2.51,1.25,2.9,2.53,3.51,4.95-.81,3.13-.19,1.97-2.42,4.37-3.01.91-1.76.91-4.75.07-2.28-1.79-2.32-2.92-3.17-5.71,1.46-1.73,1.58-2.14,3.66-2.59,2.1,2.76.33,4.15,1.91,6.84l1.15-.33c-.89-2.32-.21-5.01.13-7.6Z" fill="var(--off-white)"/>
    <path d="M140.98,59.24c9.89-.12,27.16-.6,36.37,1.79,4.15,1.07,18.24,17.24,23.14,20.91l.41.3c1.42-.02,54.22,15.09,58.29,16.64,7.74,8.6,11.85,48.04,13.52,60.5,8.59,68.36,13.95,137.09,16.05,205.96.28,8.09,1.45,24.71.11,31.57-1.05,5.39-34.84,4.73-38.92,1.93-1.63-1.12-1.8-6.83-1.89-8.51-1.93-35.85-5.46-71.49-9.11-107.18-1.69-17.99-3.66-35.96-5.91-53.89-2.71,19.51-2.78,42.09-.1,61.74.89,6.54,3.26,7.99,3.97,13.63,2.66,22.93,4.92,45.9,6.8,68.9.64,7.93,2.92,25.26,2.08,32.14-.21,1.72-.58,2.75-2.03,3.78-8.92,6.31-56.09,11.77-67.96,9.23-10-2.14-17.41-8.67-22.85-17.02-2.56-4.21-3.71-8.77-4.26-13.55l-.5-.28c-1.88,2.35-2.18,12.61-7.12,18.09-5.34,5.93-10.1,11.59-18.96,12.25-16.07,1.19-53.79-1.03-66.75-10.48,1.34-23.33,2.12-46.82,4.28-70.12,1.03-10.6,2.24-21.17,3.61-31.73,2.98-22.12,7.18-50.3,2.5-72.54-1.57,10.54-2.47,26.32-3.49,37.4-2.35,23.83-4.42,47.69-6.2,71.57-.48,6.58-2.55,52.71-4.02,55.86-.39.84-1.63,1.38-2.45,1.66-5.13,1.75-32.42,1.87-37-.68-1.13-.63-1.37-1.31-1.64-2.52-.86-3.92-.36-8.81-.31-12.82.17-10.97.49-21.93.96-32.89,1.95-53.16,5.26-106.26,9.93-159.24,2.45-25.52,5.23-51.68,9.91-76.91.97-5.26,2.95-10.77,5.88-15.26,5.55-2.38,20.96-6.05,27.74-8.02,9.54-2.76,24.53-8.26,33.76-9.61,20.65-18.04,11.96-21.25,42.14-22.59Z" fill="var(--black)"/>
    <path d="M178.94,64.17c2.03,1.5,7.41,6.37,9,8.31,4.26,5.2,21.11,18.28,19.82,25.12-1.61,2.37-7.85,4.15-10.93,5.48,18.63-1.03,13.61-9.7,4.6-19.38,16.95,6.03,37.15,11.33,54.5,15.99-2.15,5.6-4.02,14.34-5.34,20.38-2.47,11.44-4.74,22.92-6.82,34.44-8.43,45.67-20.55,96.14-11.91,142.31-5.59-.11-42.92.3-45.54,2.75-1.59,4.82,1.37,20.51,3.73,25.5,15.76-.32,31.51-2.06,46.95-2.44.37,7.77,1.76,18.42,2.57,26.4,1.03,10.46,1.95,20.93,2.74,31.41.69,8.25,1.75,18.66,1.79,26.85-11.16,6.37-46.5,10.54-60.2,10.31-9.21-.16-17.45-3.4-23.88-10.08-15.77-16.37-18.91-68.14-19.02-90.62-.05-11.5.8-23.05,1.22-34.54.38-10.48,0-21.48,1.62-31.83,2.93-18.7,9.17-37.02,13.82-55.34,3.24-12.75,5.89-25.69,8.6-38.57,6.37-30.26,12.23-61.45,12.68-92.44Z" fill="var(--off-white)"/>
    <path d="M178.18,88.53c3.29.32,7.32,5.58,9.74,7.96,7.53,7.4,15.25,11.43,24.72,15.9-3.53,13.31-13.49,33.47-19.02,46.27,11.39-1.55,24.34-3.15,35.51-5.34.75,4,1.64,8.72,1.3,12.79-.08.93-.25,2.14-1.02,2.74-2.12,1.66-35.9,5.63-39.38,5.2-1.14-.84-1.43-2.43-1.91-3.88-5.42,14.82-17.38,38.31-24.6,53.25-3.36,7.09-11.89,24.45-17.59,29.08l-.95-.17c-.03-2.3,3.44-5.02,5.23-7.7,4.95-7.44,8.21-14.77,12.22-22.6,9.63-18.82,17.72-37.84,26.37-57.02,8.12-18.01,15.46-32.9,22.02-51.67-11-5.32-18.1-9.39-26.76-18.27-1.99-2.04-4.38-4.13-5.88-6.55Z" fill="var(--black)"/>
    <path d="M226.22,155.49l1.17-.02c1.51,1.83,1.23,9.64,1.26,12.28-10.01,2.11-25.49,3.36-36.09,4.79l-1.12.02c-3.9-2.16-.13-9.08,1.17-12.19,10.71-1.22,22.86-3.27,33.61-4.89Z" fill="var(--off-white)"/>
    <path d="M151.13,304.37c3.22.43,5.59,1.74,6.65,5.02.6,1.85.4,3.87-.54,5.57-1.3,2.36-2.67,2.74-5.04,3.43-.43-.09-.86-.19-1.28-.31-1.99-.54-3.49-1.58-4.45-3.45-.92-1.8-1.02-3.9-.27-5.78,1.08-2.69,2.5-3.46,4.92-4.49Z" fill="var(--black)"/>
    <path d="M150.3,306c6.72-.27,8.94,7,3.38,10.74-7.51.04-8.7-6.03-3.38-10.74Z" fill="var(--off-white)"/>
    <path d="M151.64,253.82c3.17-1.05,6.58.68,7.61,3.84,1.03,3.17-.71,6.58-3.88,7.59-3.15,1.01-6.53-.72-7.56-3.86-1.03-3.15.68-6.54,3.83-7.58Z" fill="var(--black)"/>
    <path d="M152.72,254.86c2.42-.42,4.76,1.11,5.34,3.5s-.79,4.82-3.14,5.56c-1.66.53-3.48.08-4.71-1.16-1.23-1.23-1.67-3.05-1.14-4.71.53-1.66,1.94-2.89,3.66-3.19Z" fill="var(--off-white)"/>
    <path d="M204.19,210.71l1.04-2.53c.14,17.63-1.46,37.04-1.67,54.92-.09,7.29.1,24.94-.72,31.2h-.08s-.21-.74-.21-.74l.21-.14c-1.72-3.16,1.27-72.44,1.43-82.71Z" fill="var(--black)"/>
    <path d="M143.74,325.74l.45.15c.48,1.47.81,11.77.97,13.89.67,10.33,1.61,20.64,2.82,30.92-2.73-4.36-3.78-38.01-4.23-44.96Z" fill="var(--muted)"/>
    <path d="M250.47,109.28c.53,2.49-5.52,28.53-6.25,33.6-.89-2.24,5.08-29.61,6.25-33.6Z" fill="var(--muted)"/>
    <path d="M166.25,208.8c-.11-.89,10.72-26.27,12.11-27.85-.72,3.24-10.24,25.63-12.11,27.85Z" fill="var(--muted)"/>
    <path d="M238.76,405.11l.55.15-.21.51c-2.7,1.5-13.54,4.65-16.7,5.12h-.72s.13-.46.13-.46c5.32-1.22,12-3.09,16.94-5.32Z" fill="var(--muted)"/>
    <path d="M192.69,149.33c.36,2.73-5.84,13.78-7.48,17.42-.51-1.8,6.16-14.54,7.48-17.42Z" fill="var(--muted)"/>
    <path d="M178.36,180.94c.16-1.44,2.57-7.41,3.63-8.08-.09,1.57-2.46,7.08-3.63,8.08Z" fill="var(--muted)"/>
    <path d="M204.19,210.71c.03-2.13.17-5.1,1.07-7.01.47,1.29.12,3.05-.03,4.49l-1.04,2.53Z" fill="var(--muted)"/>
    <path d="M198.52,413.98c1.73-.27,2.12-.28,3.87-.14l-.17.29-2.78.49c-1.45.05-2.95,0-4.41,0,.51-.52,2.54-.54,3.49-.64Z" fill="var(--muted)"/>
    <path d="M211.82,412.09c.69-.2.85-.12,1.61-.09-.7.65-1.46.68-2.5.95-1.3.27-1.4.33-2.68.11,1.05-.86,2.18-.8,3.57-.97Z" fill="var(--muted)"/>
    <path d="M217.67,411.13l1.61-.18-.02.32-2.32.91c-1.13.06-1.38.09-2.48-.1.85-.74,1.94-.72,3.2-.95Z" fill="var(--muted)"/>
    <path d="M119.21,64.52c1.02,38.8,10.92,84.47,18.86,122.48,1.79,8.41,3.69,16.8,5.71,25.16,3.63,15.24,4.17,13.3.06,28.65-1.41-2.62-3.03-5.46-4.31-8.12-3.01-4.88-9.46-18.95-12.11-24.44-14.2-29.86-27.07-60.34-38.55-91.34-.5-1.66-.84-1.83-.46-3.37,2.68-2.21,6.72-3.99,9.21-5.7,3.18-2.18,19.31-16.09,19.79-19.09-3.32.97-13.94,12.89-18.31,15.93-3.16,2.2-11,6.66-13.19,8.58,12.01,33.3,25.73,65.95,41.11,97.83,3.95,8.23,11.65,24.81,16.39,32.42-2.71,12.83-2.08,24.83-2.84,37.68-1.66,28.14-1.97,55.83,2.49,83.77,1.15,7.22,3.64,13.56,3.01,20.95-1.42,16.48-12.11,31.44-30.04,30.77-16.12-.6-44.32-1.58-58.32-9.56-.15-7.5.45-16.22.88-23.77.73-12.91,1.57-25.81,2.53-38.7.58-7.14,1.57-14.96,1.99-21.97,15.8.47,32.41,2.3,48.22,2.21,1.7-4.55,5.16-20.68,3.45-24.81-.37-.89-1.05-1.07-1.91-1.36-3.99-1.32-39.63-2-45.98-1.95,5.13-34.77,2.55-58.65-3.5-92.62-3.12-17.32-6.46-34.6-10.02-51.83-2.96-14.39-7.58-39.46-12.02-52.48,16.19-3.95,31.88-8.7,47.76-13.72,2.67-.84,5.4-1.72,8.11-2.38-3.03,3.78-12.38,12.88-5.69,17.22,1.58,1.02,4.77,1.73,6.68,1.57-3.96-2.67-10.46-4.46-5.51-10.47,8.04-9.77,17.54-18.62,26.54-27.55Z" fill="var(--off-white)"/>
    <path d="M88.86,116.91c.66-.69.82-.98,1.75-1.2,3.67,5.58,6.38,15.18,8.93,21.48,9.68,23.9,19.43,47.58,30.64,70.83,3.49,7.24,7.72,15.17,10.31,22.76l-.23.4c-.29.54-.49.96-.75,1.51-3.01-4.88-9.46-18.95-12.11-24.44-14.2-29.86-27.07-60.34-38.55-91.34Z" fill="var(--muted)"/>
    <path d="M93.21,202.82l.67.49c2.26,5.58,3.66,83.22,3.16,91.33-.9-.89-.93-1.08-.96-2.65-.18-8.06.08-16.23-.1-24.27-.41-21.65-1.34-43.29-2.77-64.9Z" fill="var(--black)"/>
    <path d="M44.85,103.87c1.97,4.27,4.79,18.91,5.87,24.1l7.39,35.87c1.35,6.88,3.99,17.35,4.79,24.06-1.5-2.79-7.02-31.53-8.12-37.32-2.8-14.74-7.41-32.15-9.92-46.7Z" fill="var(--muted)"/>
    <path d="M62.84,405.64c.35-.1,20.65,4.81,22.57,5.33-3.65.37-19.47-3.09-22.57-5.33Z" fill="var(--muted)"/>
    <path d="M13.43,393c-.24-.29-.57-.52-.72-.87-2.42-5.65,7.79-167.72,9.56-186.64,1.49-15.94,8.4-97.91,16.26-104.22.31-.25.63-.35,1.01-.47l.65.31c2.97,9.31,4.76,19.32,6.75,28.92,2.83,13.33,5.55,26.69,8.17,40.07,2.16,10.95,4.26,21.91,6.28,32.88,1.83,10.11,3.9,18.86,2.56,29.17-1.08,8.36-1.77,17.07-2.53,25.49-2.79,28.6-5.28,57.25-7.46,85.9-.39,5.5-2.17,46.71-3.17,49.45l.11,1.04c.03,1.76.16,2.05-.71,3.47-4.13,2.41-33.05,2.29-36.95-.84-.58-1.52-.47-.9-.13-2.61l.32-1.05Z" fill="var(--off-white)"/>
    <path d="M13.43,393c6.57-1.76,30.37-1.29,37.37-.01l.11,1.04c.03,1.76.16,2.05-.71,3.47-4.13,2.41-33.05,2.29-36.95-.84-.58-1.52-.47-.9-.13-2.61l.32-1.05Z" fill="var(--off-white)"/>
    <path d="M13.43,393c6.57-1.76,30.37-1.29,37.37-.01l.11,1.04c-13.82-1.74-23.87-1.04-37.8.02l.32-1.05Z" fill="var(--black)"/>
    <path d="M60.67,205.46l.33.26c-3.03,16.24-4.83,37.21-6.48,53.66-2.71,25.68-5.08,51.4-7.09,77.14l-2.9,35.71c-.31,3.75-.88,14.14-1.72,17.3-.29-2.28.29-8.6.46-11.12.66-9.41,1.42-18.81,2.29-28.2,2.46-32.07,5.37-64.11,8.75-96.09.73-7.43,4.22-43.32,6.36-48.66Z" fill="var(--muted)"/>
    <path d="M250.36,393.06c-.36-10.44-1.51-22.38-2.28-32.9-2.42-31.5-5.35-62.95-8.79-94.36-1.08-10.45-2.03-22.94-3.9-33.14-2.5-13.57-.4-18.41,1.68-31.26,3.38-19.71,6.97-39.37,10.78-59,1.17-6.17,7.09-37.49,9.51-41.52,5.71.5,9.22,30.29,10.11,36.11,7.92,54.63,13.35,109.6,16.26,164.73,1.13,18.64,2.06,37.3,2.78,55.96.43,10.88,1.08,24.35.88,35.12-.57.22-1.38.4-1.62.8l1.09.84.11,1.13c-3.05,4.87-31.48,4.25-35.85,1.48-.96-1.54-.69-.89-.68-3.06l-.1-.92Z" fill="var(--off-white)"/>
    <path d="M250.45,393.98c9.77-1.16,20.39-1.08,30.19-.64,1.65.07,3.51.31,5.13.26l1.09.84.11,1.13c-3.05,4.87-31.48,4.25-35.85,1.48-.96-1.54-.69-.89-.68-3.06Z" fill="var(--off-white)"/>
    <path d="M250.36,393.06c8.6-1.89,28.07-1.05,37.04-.26-.57.22-1.38.4-1.62.8-1.61.05-3.48-.19-5.13-.26-9.8-.43-20.42-.51-30.19.64l-.1-.92Z" fill="var(--black)"/>
    <path d="M238.26,198.33c2.54,4.47,19.35,175.42,19.7,190.39-1.6-3.52-5.35-50.58-5.95-57.2l-6.42-66.85c-2.16-21.13-5.89-45.59-7.33-66.34Z" fill="var(--muted)"/>
    <path d="M121.64,77.17c7.67-1.11,18.93-1.69,26.72-1.51l-.84,87.89c-.08,6.27-1.32,38.98-.13,43.29.64-.59.44-.24.65-1.06-.42-4.41-.55-36.6.32-39.9.6-16.24.44-31.72.55-47.93l.55-42.27c7.21,0,20.39.21,27.29,1.45-2.86,36.29-10.52,72.98-18.59,108.47-2.07,9.11-6.93,29.16-10.19,37.6-5.24-22.43-10.08-44.95-14.52-67.54-4.94-24.35-10.39-53.66-11.82-78.49Z" fill="var(--off-white)"/>
    <path d="M148.05,205.78c-.42-4.41-.55-36.6.32-39.9.08,8.63.1,17.26.07,25.89,0,3.04.1,11.39-.39,14.01Z" fill="var(--muted)"/>
    <path d="M65.69,300.19c15.9.95,31.83,1.47,47.76,1.57-.12,5.7-1.4,15.59-3.21,21.01-1.8,1.38-41.27-1.24-46.59-1.76.29-6.1,1.39-14.55,2.04-20.81Z" fill="var(--off-white)"/>
    <path d="M232.51,300.07c1.09-.13.58-.23,1.55.36,1.11,3.25,2.2,16.29,2.61,20.39-14.93.94-29.61,2.3-44.64,2.5l-.64-.16c-2.73-2.73-3.66-17.09-3.85-21.33,14.66-.85,30.01-.97,44.97-1.76Z" fill="var(--off-white)"/>
    <path d="M134.1,68.19c6.05-.52,38.94-.61,42.76,1.61.52,1.82.12,4.09-.08,6.03-4.67-.59-8.29-.95-12.99-1.17-14.23-1.11-28.16-.34-42.31,1.15l-.56-6.32c4.52-.81,8.6-1.01,13.18-1.3Z" fill="var(--off-white)"/>
    <path d="M133.59,61.51c6.15-.51,40.95-1.23,43.69,2.32.11,1.5.33,2.11-.43,3.29-2.23,1.55-8.41.15-12.08,0-15.48-.65-27.8-.26-43.21.77l-.41-.62c-.17-1.57-.39-2.51.03-4.03,2.31-1.42,9.48-1.55,12.41-1.73Z" fill="var(--off-white)"/>
    <path d="M66.86,298.26c2.77-.22,6.1-.29,8.87-.17,12.23.54,24.61.36,36.78,1.61,0,0,.88.78.96.86-7.73-1.03-40.27.71-46.61-2.3Z" fill="var(--off-white)"/>
    <path d="M214.62,298.25c3.39-.26,14.48-.51,17.25.23-1.43.88-22.96,1.61-26.2,1.76-3.88.16-14.81.67-17.95-.31,1.41-1.02,23.3-1.54,26.9-1.67Z" fill="var(--off-white)"/>
  </g>
  <g id="ap-">
    <circle id="ap-cf-neck" cx="178.36" cy="89.61" r="2" fill="none"/>
    <circle id="ap-shoulder-left" cx="66.38" cy="91.61" r="2" fill="none"/>
    <circle id="ap-shoulder-right" cx="238.26" cy="93.61" r="2" fill="none"/>
    <circle id="ap-gorge-left" cx="100.19" cy="103.87" r="2" fill="none"/>
    <circle id="ap-gorge-right" cx="198.15" cy="102.76" r="2" fill="none"/>
    <circle id="ap-lapel-right" cx="183.99" cy="156.04" r="2" fill="none"/>
    <circle id="ap-lapel-left" cx="110.28" cy="158.04" r="2" fill="none"/>
    <circle id="ap-break-left" cx="142.5" cy="242.61" r="2" fill="none"/>
    <circle id="ap-break-right" cx="146.08" cy="253.51" r="2" fill="none"/>
    <circle id="ap-underarm-right" cx="233.86" cy="226.95" r="2" fill="none"/>
    <circle id="ap-underarm-left" cx="65.65" cy="230.69" r="2" fill="none"/>
    <circle id="ap-wrist-left" cx="31.88" cy="395.51" r="2" fill="none"/>
    <circle id="ap-wrist-right" cx="268.87" cy="396.11" r="2" fill="none"/>
    <circle id="ap-hem-right" cx="209.79" cy="416.71" r="2" fill="none"/>
    <circle id="ap-hem-left" cx="90.16" cy="414.2" r="2" fill="none"/>
  </g>
</svg>