<?xml version="1.0" encoding="UTF-8"?>
<svg xmlns="http://www.w3.org/2000/svg" viewBox="0 0 300 500">
  <g id="Layer_1" data-name="Layer 1">
    <path d="M110.96,97.07c.34-4.28,1.07-8.66,4.43-11.84,1.52-1.44,3.59-1.71,5.62-1.46,4.41.53,8.93,1.52,13.34,2.1,6.98.92,14.27,1.31,21.3,1.02,4.44-.08,8.64-.67,13.01-1.34,3.77-.57,8.32-1.66,12.07-1.74,6.2-.13,8.62,8.66,8.98,13.36,3.43.62,11.46,3.39,15.31,4.58,9.89,3.02,19.72,6.22,29.49,9.58,4.61,1.64,16.14,5.27,18.37,9.12,6.85,11.82,9.65,31.15,12.24,44.27,5.1,25.07,9.5,50.28,13.19,75.59,3.81,27.87,7.22,55.8,10.22,83.77l2.6,22.95c.32,2.94,1.09,8.49,1.17,11.28.31,1.42,1.15,7.57.39,8.46-2.78,3.23-11.93,4.65-16.67,5.08-5.13.46-20.42,2.16-25.4-.21-.98-.47-1.71-7.22-1.75-8.71-.38-.86-1.11-7.42-1.3-8.81l-3.25-23.23c-3.05-20.38-6.22-40.75-9.52-61.09-1-3.91-1.22-10.37-2.2-14.46-.24.26-.22,1.1-.26,1.54.28,1.54-.08,4.45-.14,6.18-.23,7.16-.06,14.3-.05,21.47,0,.53-.07,1.24-.34,1.7-1.06,1.75-5.07,2.55-7,2.8-12.14,1.59-24.91,2.23-37.13,2.74-31.69,1.39-63.43,1.03-95.07-1.08-6.37-.45-14.44-.9-20.68-2.71-1.09-.32-2.02-1.26-2.37-2.38,2.18-1.22.88-3.44,1.5-5.89.12-1.69.07-4.18.08-5.93h3.35s-3.34-.52-3.34-.52c-.21-13.02-.65-28.46-2.28-41.37-.06.74-.03,1.41-.36,2.05l-.09-.15c-.09,1.28-.01,6.78-.21,7.36l-.1.3c-.07,8.19-1.89,17.24-2.73,25.46-.24,2.42-.81,5.38-.9,7.72,1.25-1.22.87-3.22,1.41-4.9-.16,2.98-.75,4.61-.27,7.65-1.8,15.26-4.41,30.43-6.12,45.71-.17,1.51-.38,3.1-.63,4.6-.64,6.44-1.69,14.45-2.55,20.79-.57,4.22-1.8,20.16-3.31,22.94-4.01,3.26-39.26.69-43.64-4.08-1.43-1.55.6-14.72.93-17.66l3.71-31.67c4.02-37.2,8.93-74.29,14.73-111.25,2.79-17.17,5.94-34.28,9.44-51.31,2.05-9.92,3.95-20.01,7.5-29.52,1.03-2.46,2.52-6.03,4.86-7.49,5.73-3.57,12.72-5.87,19.13-8.07,13.56-4.65,27.48-9.46,41.28-13.33Z" fill="var(--black)"/>
    <path d="M61.14,159.02l.62-1.07c.51,1.4.08,1.75.88,2.19.33,1.06.62,4.68.76,5.98,5.4-.19,10.8-.34,16.2-.45,1.26-.01,4.92-.12,6.04,0l1.72-.02c2.73-.45,15.75-.23,19.14-.23,13.85-.05,27.7,0,41.55.13.25.94.27.56-.02,1.44-.19,7.16-.07,14.77-.07,21.96v80.5c0,7.03-.13,14.62.04,21.62-1.28.23-12.78-.16-14.13-.2-11.44-.33-54.86-.93-62.75-5.09l-.06-6.06c.12-1.69.07-4.18.08-5.93h0v-.52c-.2-13.02-.64-28.46-2.27-41.37-.06.74-.03,1.41-.36,2.05l-.09-.15c-.09,1.28-.01,6.78-.21,7.36l-.1.3c-.51-3.21-.47-6.86-.78-10.09-1.02-10.76-.54-21.59-3.45-32.06-1.38-4.94-2.21-10.94-3.06-16.01-.48-2.86,1.29-8.45,1.23-11.53.14-4.46-.65-8.36-.92-12.74Z" fill="var(--off-white)"/>
    <path d="M61.14,159.02l.62-1.07c.51,1.4.08,1.75.88,2.19.33,1.06.62,4.68.76,5.98,5.4-.19,10.8-.34,16.2-.45,1.26-.01,4.92-.12,6.04,0l1.72-.02c2.73-.45,15.75-.23,19.14-.23,13.85-.05,27.7,0,41.55.13.25.94.27.56-.02,1.44-5.85-.1-11.99-.04-17.8-.23.08,6.47.1,12.93.06,19.4-5.36,1.5-10.71,3.03-16.05,4.59-3.09.89-7.29,1.96-10.23,3.09-6.18-1.63-12.34-3.3-18.5-5.01-2.78-.76-7.05-1.75-9.67-2.61,0-6.3.06-12.74-.02-19.03-4.03.19-8.07.27-12.1.26,1.89,16.45,2.88,33.23,4.18,49.74.37,4.72.93,10.02.99,14.72-.06.74-.03,1.41-.36,2.05l-.09-.15c-.09,1.28-.01,6.78-.21,7.36l-.1.3c-.51-3.21-.47-6.86-.78-10.09-1.02-10.76-.54-21.59-3.45-32.06-1.38-4.94-2.21-10.94-3.06-16.01-.48-2.86,1.29-8.45,1.23-11.53.14-4.46-.65-8.36-.92-12.74Z" fill="var(--black)"/>
    <path d="M87.35,165.65c1.99.26,11.34-.64,12.03.35-1.19.93-11.35.32-13.47.05l-.28-.37,1.72-.02Z" fill="var(--black)"/>
    <path d="M102.25,166.8l26.65-.05v18.25c-6.96,2.05-18.53,4.96-24.89,7.37-8.87-2.52-18.05-4.75-26.85-7.41.05-5.92.06-11.84.02-17.77l25.07-.41Z" fill="var(--off-white)"/>
    <path d="M147.93,121.36c.66-.48,2.52-.21,3.34-.11l.92.48.2-.12c.25,13.24-.11,26.69.01,39.94.01,1.34-.33,3.73.4,4.82,1.01.33,1.6-.17,2.25.27l-.16.24c5.3.21,10.85-.19,16.19-.12-.07,6.3-.15,13-.04,19.32,9.46,2.57,19.86,4.79,29.14,7.68,7.62-2.64,18.39-4.95,25.49-7.68.04-6.29.02-12.59-.05-18.88,1.05.01,2.77.08,3.77.03,2.72.29,5.9.22,8.67.23-1.2,10.13-2.21,20.28-3.02,30.45-.27,3.07-1.18,10.98-1.09,13.58-.69,6.5-1,13.13-1.53,19.66-.13,1.55-.33,3.61-.28,5.13-.33,2.39-1.42,19.79-1.21,21.65.86.96.62,2.06.59,3.4.11-.96.4-3.15.4-4.03v-.25s.42-.14.42-.14c.28,1.54-.08,4.45-.14,6.18-.23,7.16-.06,14.3-.05,21.47,0,.53-.07,1.24-.34,1.7-1.06,1.75-5.07,2.55-7,2.8-12.14,1.59-24.91,2.23-37.13,2.74-31.69,1.39-63.43,1.03-95.07-1.08-6.37-.45-14.44-.9-20.68-2.71-1.09-.32-2.02-1.26-2.37-2.38,2.18-1.22.88-3.44,1.5-5.89l.06,6.06c7.88,4.16,51.3,4.76,62.75,5.09,1.36.04,12.86.43,14.13.2-.17-7-.03-14.58-.04-21.62v-41.21s0-39.29,0-39.29c0-7.19-.13-14.8.07-21.96.29-.88.27-.5.02-1.44-.3-3.79-.08-10.64-.08-14.59l-.03-29.6Z" fill="var(--off-white)"/>
    <path d="M147.93,121.36c.66-.48,2.52-.21,3.34-.11l.92.48.2-.12c.25,13.24-.11,26.69.01,39.94.01,1.34-.33,3.73.4,4.82,1.01.33,1.6-.17,2.25.27l-.16.24c-1.02.02-1.19-.14-1.96.36-.74,1.59-.19,3.65-.27,5.76-1.64,2.84.78,92.27-.25,101.76-.24,2.2.53,14.79-.29,16.25-1.2.18-2.42.19-3.62.05h-.51c-.17-7-.03-14.59-.04-21.62v-41.21s0-39.29,0-39.29c0-7.19-.13-14.8.07-21.96.29-.88.27-.5.02-1.44-.3-3.79-.08-10.64-.08-14.59l-.03-29.6Z" fill="var(--off-white)"/>
    <path d="M147.93,121.36c.66-.48,2.52-.21,3.34-.11-.79.05-1.48.09-2.27.21-.44.61-.43.61-.43,1.51.02,4.73.04,9.49.04,14.21v30.33s.02,93.1.02,93.1v19.35c0,3.42.1,7.76-.11,11.1h-.51c-.17-7-.03-14.59-.04-21.62v-41.21s0-39.29,0-39.29c0-7.19-.13-14.8.07-21.96.29-.88.27-.5.02-1.44-.3-3.79-.08-10.64-.08-14.59l-.03-29.6Z" fill="var(--black)"/>
    <path d="M152.18,121.72l.2-.12c.25,13.24-.11,26.69.01,39.94.01,1.34-.33,3.73.4,4.82,1.01.33,1.6-.17,2.25.27l-.16.24c-1.02.02-1.19-.14-1.96.36-.74,1.59-.19,3.65-.27,5.76-1.64,2.84.78,92.27-.25,101.76-.24,2.2.53,14.79-.29,16.25-.29-1.56-.18-6.91-.18-8.71.05-5.69.05-11.38,0-17.07.06-4.53.05-9.07-.02-13.6.41-10.44.04-23.37.04-34.06v-67.39s-.03-18.81-.03-18.81c0-1.86-.12-8.18.24-9.66Z" fill="var(--black)"/>
    <path d="M151.94,265.24c-.73-2.03.08-6.59-.38-9.36-.89-.33-1.29-.31-1.58-1.19.47-.91,1.5-.79,1.64-1.14.15-.37-.24-1.02.31-1.91.07,4.53.08,9.07.02,13.6Z" fill="var(--border)"/>
    <path d="M152.13,291.02c.81-1.45.05-14.05.29-16.25,1.03-9.5-1.39-98.93.25-101.76l.03,118.11c10.61-.02,71.71-.98,77.4-5.45.94-1.4.31-9.46.39-11.71.21-5.25.01-10.8.44-16.03.86.96.62,2.06.59,3.4.11-.96.4-3.15.4-4.03v-.25s.42-.14.42-.14c.28,1.54-.08,4.45-.14,6.18-.23,7.16-.06,14.3-.05,21.47,0,.53-.07,1.24-.34,1.7-1.06,1.75-5.07,2.55-7,2.8-12.14,1.59-24.91,2.23-37.13,2.74-31.69,1.39-63.43,1.03-95.07-1.08-6.37-.45-14.44-.9-20.68-2.71-1.09-.32-2.02-1.26-2.37-2.38,2.18-1.22.88-3.44,1.5-5.89l.06,6.06c7.88,4.16,51.3,4.76,62.75,5.09,1.36.04,12.86.43,14.13.2h.51c1.2.15,2.42.13,3.62-.05Z" fill="var(--black)"/>
    <path d="M248.82,118.9c3.06,2.36,4.54,4.75,5.81,8.37,4.52,12.92,7.05,27.94,9.68,41.4,6.69,33.39,12.14,67.01,16.33,100.8,2.23,17.87,4.32,35.76,6.27,53.66,1.04,9.48,1.97,19.36,3.19,28.76.17-.45.32-4.62.26-5.25.77,2.55.88,10.3,1.95,11.7.31,1.42,1.15,7.57.39,8.46-2.78,3.23-11.93,4.65-16.67,5.08-5.13.46-20.42,2.16-25.4-.21-.98-.47-1.71-7.22-1.75-8.71-.38-.86-1.11-7.42-1.3-8.81l-3.25-23.23c-3.05-20.38-6.22-40.75-9.52-61.09-1-3.91-1.22-10.37-2.2-14.46-.24.26-.22,1.1-.26,1.54l-.43.14v.25c0,.88-.29,3.07-.39,4.03.02-1.34.26-2.44-.59-3.4-.21-1.86.88-19.26,1.21-21.65-.04-1.52.16-3.59.28-5.13.53-6.52.84-13.16,1.53-19.66-.09-2.6.82-10.51,1.09-13.58.81-10.17,1.82-20.32,3.02-30.45-2.77-.01-5.95.06-8.67-.23,1.17-.16,3.2-.05,4.45-.02l-.17-.18.22.13c-.45-.67-1.19-.71-1.95-1.14l-.14-.08,6.55.09c.15-2.47.54-6.41.95-8.81l.28.56c.5-1.45.31-4,.95-4.92.31,2.21-1.15,6.29-.2,7.62,1.5-11.96,4.09-30.32,8.48-41.58Z" fill="var(--off-white)"/>
    <path d="M290.09,351.89c.17-.45.32-4.62.26-5.25.77,2.55.88,10.3,1.95,11.7.31,1.42,1.15,7.57.39,8.46-2.78,3.23-11.93,4.65-16.67,5.08-5.13.46-20.42,2.16-25.4-.21-.98-.47-1.71-7.22-1.75-8.71l.35-.35c-.12-1.34-1.23-7.12-.71-7.77.8,1.26.94,8.03,1.53,8.98l.23-.47c.25.54.84,5.03,1,5.96,1.52-.35,3.34-.63,4.89-.85,11.54-1.6,23.6-3.73,35.21-4.49-.23-3.82-1.16-8.33-1.28-12.07Z" fill="var(--black)"/>
    <path d="M289.89,365.61c.31-.04.83-.03,1.16-.04l.13.23c-2.55,4.92-30.44,5.86-35.8,5.3-.93-.03-1.4.02-2.27-.35,1.24-1.34,32.74-4.87,36.78-5.15Z" fill="var(--off-white)"/>
    <path d="M239.3,157.23l.28.56c.5-1.45.31-4,.95-4.92.31,2.21-1.15,6.29-.2,7.62-.23,3.81-.7,7.74-.68,11.55.02,2.94,1.37,7.38,1.04,10.17-.88,7.45-3.02,15.1-4.63,22.43-.41,1.87-.45,7.05-.82,8.13-.26,5.73-.83,11.57-1.19,17.31-.05.82-.43,6.38-.58,6.89l-.7.16c-.19.37-.36.73-.5,1.12l-.14-1.96c-.04-1.52.16-3.59.28-5.13.53-6.52.84-13.16,1.53-19.66-.09-2.6.82-10.51,1.09-13.58.81-10.17,1.82-20.32,3.02-30.45-2.77-.01-5.95.06-8.67-.23,1.17-.16,3.2-.05,4.45-.02l-.17-.18.22.13c-.45-.67-1.19-.71-1.95-1.14l-.14-.08,6.55.09c.15-2.47.54-6.41.95-8.81Z" fill="var(--black)"/>
    <path d="M234.8,269.81h.73c.76.76.26.87.95,1.58.45,1.46,1.06,6.22,1.33,7.96l2.66,17.22c2.53,15.65,4.91,31.32,7.15,47,.7,5.05,2.39,15.02,2.63,19.77l-.23.47c-.59-.95-.72-7.73-1.53-8.98-.52.65.59,6.43.71,7.77l-.35.35c-.38-.86-1.11-7.42-1.3-8.81l-3.25-23.23c-3.05-20.38-6.22-40.75-9.52-61.09Z" fill="var(--black)"/>
    <path d="M232.13,236.27l.14,1.96c.14-.39.31-.75.5-1.12l.7-.16c-.18,4.09-.5,7.93-.24,12.04.45,7.07,2.97,15.47,3.25,22.39-.7-.7-.19-.81-.95-1.58h-.73c-1-3.91-1.22-10.37-2.2-14.45-.24.26-.22,1.1-.26,1.54l-.43.14v.25c0,.88-.29,3.07-.39,4.03.02-1.34.26-2.44-.59-3.4-.21-1.86.88-19.26,1.21-21.65Z" fill="var(--muted)"/>
    <path d="M12.73,341.38c.48-2.83.8-6.96,1.15-9.9l2.44-20.26c2.85-24.26,5.88-48.5,9.09-72.71,3.48-24.97,7.69-49.83,12.61-74.56,2.05-10.41,4.07-21.08,7.04-31.28,1.39-4.77,3.11-10.52,7.2-13.61,4.19,10.49,7.32,28.73,8.88,39.98.27,4.38,1.06,8.29.92,12.74.06,3.09-1.7,8.67-1.23,11.53.84,5.08,1.68,11.07,3.06,16.01,2.92,10.47,2.43,21.31,3.45,32.06.31,3.23.26,6.89.78,10.09-.07,8.19-1.89,17.24-2.73,25.46-.24,2.42-.81,5.38-.9,7.72,1.25-1.22.87-3.22,1.41-4.9-.16,2.98-.75,4.61-.27,7.65-1.8,15.26-4.41,30.43-6.12,45.71-.17,1.51-.38,3.1-.63,4.6l-.69.02-.3-.34-.58.9c-2.04,12.62-3.5,28.12-5.01,41.05-14.41-2.15-27.42-4.15-41.99-5.38.74-7.43,1.57-14.85,2.47-22.26" fill="var(--off-white)"/>
    <path d="M64.5,274.65c1.25-1.22.87-3.22,1.41-4.9-.16,2.98-.75,4.61-.27,7.65-1.8,15.26-4.41,30.43-6.12,45.71-.17,1.51-.38,3.1-.63,4.6l-.69.02-.3-.34-.58.9c.92-10.78,3.17-24.31,4.64-35.22l1.62-12.18c.2-1.47.56-4.92.92-6.24Z" fill="var(--black)"/>
    <path d="M189.67,98.72c10.87,3.18,21.7,6.53,32.47,10.05,8.46,2.76,17.36,5.53,25.4,9.36-3.89,11.17-7.2,27.22-8.24,39.09-.41,2.4-.8,6.34-.95,8.81l-6.55-.09c-4.2-.21-8.41-.29-12.61-.24-7-.33-15.35-.31-22.35-.25-5.35-.18-11.58-.03-16.99-.03-9.06-.06-18.12,0-27.18.17-.26-14.46-.03-29.67-.03-44.19,14.41-.94,34.27-5.73,37.03-22.67Z" fill="var(--off-white)"/>
    <path d="M53.6,118.27c10.71-4.96,24.47-9.19,35.82-12.96,6.38-2.12,15.33-5.12,21.66-6.74,1.21,4.75,2.07,7.21,5.51,10.99,7.44,8.18,20.62,11.48,31.33,11.8l.03,29.6c0,3.96-.21,10.8.08,14.59-13.85-.14-27.7-.18-41.55-.13-3.39,0-16.42-.22-19.14.23l-1.72.02c-1.12-.12-4.78-.02-6.04,0-5.4.11-10.8.26-16.2.45-.13-1.29-.42-4.92-.76-5.98-.6-11.14-5.25-31.34-9.03-41.88Z" fill="var(--off-white)"/>
    <path d="M172.49,166.77c11.24-.05,22.48-.01,33.72.12,2.29.05,6.11.23,8.28.08,2.84.27,6.85.18,9.79.2-.11,5.95-.12,11.9-.05,17.85-5.06,1.58-10.14,3.12-15.23,4.61-10.5,3.12-8.4,2.62-18.93-.11l-17.61-4.58.04-18.17Z" fill="var(--off-white)"/>
    <path d="M196.84,165.45c7-.06,15.35-.08,22.35.25-1.45.86-5.5.07-7.52.6h0s.13.33.13.33c2.46.02,4.96.01,7.41.16-1.32.03-3.46.03-4.71.19-2.17.15-5.99-.04-8.28-.08-1.49-1.65-9.75-.28-11.1-1.12.27-.32,1.19-.27,1.73-.32Z" fill="var(--black)"/>
    <path d="M118.94,85.3c3.78.06,9.76,1.19,13.72,1.76,6.28.94,12.61,1.42,18.96,1.43,5.45-.04,10.89-.47,16.27-1.28,4.05-.62,10.15-1.91,14.06-1.93-1.55,4.38-2.58,5.99-5.54,9.49-11.65,10.33-29.89,11.23-44.01,5.37-6.83-2.83-10.91-8.05-13.46-14.84Z" fill="var(--off-white)"/>
    <path d="M183.14,86.15c6.39,3.98,6.49,15.3,1.98,20.96-7.07,8.87-16.25,11.35-26.87,12.92l-5.6.4v-15.3c13.28-1.57,25.45-4.77,30.49-18.98Z" fill="var(--off-white)"/>
    <path d="M147.82,120.4c-.39,0-.78,0-1.17-.03-10.5-.5-22.23-3.69-29.59-11.72-6.2-6.77-6.59-16.87.46-23.23,4.26,11.26,11.69,16.36,23.08,18.69,1.84.38,6.11.48,7.47,1.27l-.07.3c-.27,1.12-.16,12.64-.18,14.71Z" fill="var(--off-white)"/>
    <path d="M10.2,365.57c10.82.65,21.59,1.91,32.26,3.78,2.36.4,6.15.78,8.19,1.28l-.09.26c-7.43.78-15.49.44-22.91-.45-3.63-.43-16.04-1.5-17.45-4.87Z" fill="var(--off-white)"/>
    <path d="M148.5,105.23c1.16-.22,2.46-.11,3.65-.07.57,1.52.19,12.76.27,15.27l-.27.1c-1.22.02-2.58-.04-3.81-.06h-.3c.16-2.74.16-12.2-.05-14.78l.07-.3.43-.16Z" fill="var(--off-white)"/>
    <path d="M152.15,105.16c.57,1.52.19,12.76.27,15.27l-.27.1c-.37-1.84-.29-13.37,0-15.37Z" fill="var(--black)"/>
    <path d="M148.5,105.23c.02,2.06.25,13.77-.16,15.24h-.3c.16-2.74.16-12.2-.05-14.78l.07-.3.43-.16Z" fill="var(--black)"/>
    <path d="M68.88,231.9c1.62,12.92,2.07,28.35,2.28,41.37v.52h0c-.01,1.75.04,4.24-.08,5.93-.63,2.46.68,4.67-1.5,5.89-.11-1.52-.05-2.93-.04-4.45.05-9.69.19-19.71-.75-29.36-.67,8.12-2.03,17.52-3.13,25.59-.49-3.04.11-4.67.27-7.65-.53,1.68-.16,3.68-1.41,4.9.09-2.34.66-5.3.9-7.72.83-8.22,2.66-17.27,2.73-25.46l.1-.3c.2-.58.12-6.09.21-7.36l.09.15c.33-.64.31-1.31.36-2.05Z" fill="var(--muted)"/>
  </g>
  <g id="ap-">
    <circle id="ap-cf-neck" cx="150.32" cy="105.62" r="2" fill="none"/>
    <circle id="ap-collar-left" cx="126.92" cy="105.62" r="2" fill="none"/>
    <circle id="ap-collar-right" cx="172.46" cy="107.62" r="2" fill="none"/>
    <circle id="ap-shoulder-right" cx="217.2" cy="105.62" r="2" fill="none"/>
    <circle id="ap-pocket-right" cx="198.37" cy="181.26" r="2" fill="none"/>
    <circle id="ap-wrist-right" cx="272.15" cy="368.4" r="2" fill="none"/>
    <circle id="ap-underarm-right" cx="237" cy="191.77" r="2" fill="none"/>
    <circle id="ap-hem-right" cx="188.25" cy="289.02" r="2" fill="none"/>
    <circle id="ap-hem-center" cx="149.57" cy="289.02" r="2" fill="none"/>
    <circle id="ap-hem-left" cx="104.49" cy="289.02" r="2" fill="none"/>
    <circle id="ap-wrist-left" cx="30.43" cy="368.4" r="2" fill="none"/>
    <circle id="ap-pocket-left" cx="100.82" cy="183.26" r="2" fill="none"/>
    <circle id="ap-shoulder-left" cx="80.73" cy="107.62" r="2" fill="none"/>
  </g>
</svg>