<?xml version="1.0" encoding="UTF-8"?>
<svg xmlns="http://www.w3.org/2000/svg" viewBox="0 0 300 500">
  <g id="Layer_1" data-name="Layer 1">
    <path d="M59.93,299.79c-9.38-.16-26.83-3.62-35.65-7.35-1.07-.45-2.47-1.01-3.39-.58-.48,1.49-.5.9-.04,2.25,3.58,4.04,23.6,6.52,29.84,7.34,1.37.18,6.12.48,7.07.78-8.46,1.74-26.41-2.08-34.65-5.31-3.35-1.31-3.74-3.06-3.2-6.35,6.49-39.36,9.29-79.3,15.99-118.61,3.34-18.82,7.19-37.55,11.55-56.16,1.07-4.64,1.71-9.78,2.86-14.09.66-.33,1.52-.77,1.81-1.5,4.51-10.53,8.73-24.51,15.62-33.81,8.36-11.28,22.15-12.48,30.78-25.47,6.43-6.81,14.24-16.63,21.65-22.1,11.39-8.43,41.05-4.16,53.48-2.6,5.42,4.99,11.61,9.42,16.78,14.75,11.4,11.79,17.92,20.82,33.26,28.12,12,5.72,18.59,28.66,23.73,41.54l.11.17c1.09-.04.62-.2,1.44.5,1.48,8.85,3.57,16.48,5.29,25.06,2.89,14.43,6.01,29.03,8.56,43.52,5.55,31.52,9.25,62.98,13.54,94.69,1.09,8.04,3.22,20.27,4.15,28.63.11.95-1.72,2.32-2.62,2.9-7.06,4.53-30.5,7.71-37.83,6.04,2.94-.68,7.24-.46,10.29-.78,6.64-.72,25.99-3.16,29.81-8.95l-.24-.64c-2.61-1-8.75,1.97-11.53,2.84-9.94,3.08-20.56,4.39-30.92,5.23.81,5.53.77,15.94.77,21.77l-.28,35.65-1.14,119.72c-.77.58-.54.62-.54.62-1.43.03-11.88,3.67-15.07,4.22-17.96,2.8-38,4.26-56.22,4.1-29.96-.27-74.31,3.32-102.4-7.99.02.34.04.68.05,1.03.04,1.33.67-1.79-.05-1.03-1.08-1.05-1.88-1.22-1.88-2.73.04-16.8-.15-33.6-.21-50.4l-.44-68.84-.08-36.97c-.03-4.63-.43-15.13-.01-19.19Z" fill="var(--black)"/>
    <path d="M211.71,53.95c2.51,1.17,4.96,2.46,7.34,3.85,10.47,6,14.94,11.58,19.07,22.93,2.36,6.48,6.29,13.98,7.93,20.59l.55.19.81-.86.11.17c.08,2.18.48,3.65.97,5.78l.11.43c5.16,22.4,9.75,44.93,13.74,67.57,4.27,25.67,7.92,51.43,10.95,77.28,1.53,12.12,3.98,25.42,5.11,37.31-11.2,6.12-28.57,8.24-41.28,9.36-.63-18.52-.32-38.81-.65-57.47-.04-2.28,1.78-5.99-.6-8.18-1.91-1.7-2.8-1.26-2.71-4.22-.29-5.61-.33-11.25-.51-16.87l-1.26-36.49c-.93-26.32-2.22-52.67-2.7-79.01-.13-6.84.31-13.42.37-20.21-2.49,8.17-1.08,39.1-.75,48.73l1.82,49.3,1.31,38.48c.18,5.04.2,13.74.66,18.53-6.96-.78-45.59-3.67-50.11-1-1.11,1.58-.9,25.1-.96,29.14-.31,12.34-.4,24.68-.27,37.02.39,20.49-1.26,20.85,19.72,21.71l21.32.88c3.04.44,11.91.61,14.87-.1.67,51.97-.49,104.66-.66,156.73-13.81,7.88-49.8,8.65-66.55,8.79.42-24.63-.23-50.4-.46-75.03l-1.01-110.97c-.32-22.53-.21-45.07-.89-67.61-.31-10.26-.11-19.82-1.33-30.12-1.21-10.23-4.61-18.37-8.04-28.06,7.73-8.36,56.45-63.81,56.39-71.09-.03-3.87-15.27-12.65-18.55-15.71l-.26-.25c5.32,1.94,19.79,6.96,24.65,6.04,4.53-.85-7.01-34.31-8.22-37.53Z" fill="var(--off-white)"/>
    <path d="M248.48,106.6l.11.43c-1.42,1.09-5.33,4.93-6.11,5.22,2.06-2.85,3-3.8,6-5.64Z" fill="var(--muted)"/>
    <path d="M223.33,318.03c-5.8-.15-36.28-.51-39.17-3.31-1.84-1.79-2.11-7.41-2.22-9.83-.3-6.34-.35-72.82.95-73.91,3.09-2.59,41.54.09,47.34.88,2.6.36,4.01.41,5.64,2.57-.09,1.03-.17,2.43-.34,3.42-.7,16.89.33,35.37.18,52.39-.05,5.3,1.79,24.45.56,28.11l.36.4c-2.96.71-11.83.54-14.87.1,1.11-.06,2.49-.09,3.56-.28l-1.99-.54Z" fill="var(--off-white)"/>
    <path d="M223.33,318.03c2.34.02,9.53.34,11.28.04.73-.74.49-.62.65-1.92.63.67.73,1.32,1,2.2l.36.4c-2.96.71-11.83.54-14.87.1,1.11-.06,2.49-.09,3.56-.28l-1.99-.54Z" fill="var(--border) "/>
    <path d="M52.35,103.13c4.64-11.59,9.45-25.29,16.43-35.72,4.29-6.41,13.05-11.11,19.79-14.77-2.3,6.59-10.28,31.73-9.31,37.88,2.74,3.7,26.09-6.77,30.43-8.63-5.16,3.65-10.51,7.71-15.3,11.82-5.11,4.38-11.98,7.69-6.77,15.1,15.17,21.56,33.88,40.72,51.65,60.14,1.9,2.07,3.67,3.89,5.39,6.13,7.95,8.25,14.89,17.9,18.35,28.9-.77-5.68-2.1-9.33-5.37-14.18-8.31-12.33-19.58-23.82-29.7-34.66-9.29-10.01-18.32-20.25-27.08-30.72-4.59-5.51-9.84-11.66-13.26-17.98-.81-1.5-1.27-3.95.09-5.28,7.43-7.27,16.27-13.98,24.68-20.01,5.66-4.06,11.67-6.9,16.6-11.71,9.48,36.25,17.69,73.47,29.75,108.99,2.06,6.08,4.39,12.22,5.4,18.58,1.68,10.76,1.5,21.54,1.83,32.37.47,22.85.75,45.69.86,68.54l1.6,186.51c-7.67.24-15.95.64-23.58.64l-.46.15c-5.51-.68-11.58-.1-17.17-.21-11.95-.23-56.9-1.22-64.32-9.05-.84-.89-.77-2.67-.81-3.88-.44-11.47-.08-23.06-.24-34.55l-.59-118.57c15.6,1,33.92-1.2,49.64-2.32,1.87-.13,4.83-1.49,5.58-3.3,2.75-6.64,1.72-17.25,1.73-24.56l-.12-36.87c-.04-5.17.56-17.99-.32-21.88-4.61-2.54-44.49.44-51.37,1.66.06-9.8,1.09-21.96,1.54-31.96l2.15-49.41c.66-15.22,1.51-30.14,1.11-45.39-.19-7.17-.72-14.09-1.15-21.24l-.92-.74c2.09,24.55.61,51.97-.64,76.6l-1.92,44.01c-.42,8.68-1.3,19.56-1.33,27.99-.97.44-2.73,1.08-2.97,2.07-1.05,4.3-.69,10.65-.65,15.1l.28,30.43c.06,4.87.43,14.79-.28,19.32-12.23-.32-28.88-3.86-40.22-8.36,2.12-14.22,4.13-28.45,6.02-42.7,1.08-8.56,1.79-17.16,2.85-25.73,3.75-30.38,8.25-60.74,15.17-90.58,1.84-7.93,3.97-20,6.44-27.53,8.17,5.12,13.61,12.57,16.61,21.6l.12.03c.43-1.73-2.32-7.31-3.26-8.87-3.24-5.34-7.67-9.86-12.95-13.2Z" fill="var(--off-white)"/>
    <path d="M163,203.96c-.77-5.68-2.1-9.33-5.37-14.18-8.31-12.33-19.58-23.82-29.7-34.66-9.29-10.01-18.32-20.25-27.08-30.72-4.59-5.51-9.84-11.66-13.26-17.98-.81-1.5-1.27-3.95.09-5.28,7.43-7.27,16.27-13.98,24.68-20.01,5.66-4.06,11.67-6.9,16.6-11.71,9.48,36.25,17.69,73.47,29.75,108.99,2.06,6.08,4.39,12.22,5.4,18.58,1.68,10.76,1.5,21.54,1.83,32.37.47,22.85.75,45.69.86,68.54l1.6,186.51c-7.67.24-15.95.64-23.58.64.27-7.1.08-15.57.08-22.76v-41.82s-.02-126.72-.02-126.72v-79.67s.03-24.44.03-24.44c0-4.22.16-10.49-.25-14.58,7.95,8.25,14.89,17.9,18.35,28.9Z" fill="var(--off-white)"/>
    <path d="M155.37,246.9c1.97-.69,4.12.32,4.85,2.27.73,1.95-.23,4.13-2.17,4.9-1.29.51-2.76.29-3.83-.59-1.08-.88-1.6-2.27-1.36-3.63.24-1.37,1.2-2.5,2.51-2.96Z" fill="var(--border) "/>
    <path d="M155.51,247.71c1.51-.57,3.21.15,3.85,1.64.64,1.49,0,3.21-1.45,3.92-1,.49-2.2.39-3.11-.26-.91-.65-1.38-1.75-1.23-2.86.15-1.11.89-2.04,1.94-2.44Z" fill="var(--off-white)"/>
    <path d="M144.65,175.06c.41,4.09.25,10.36.25,14.58l-.03,24.44v79.67s.01,126.72.01,126.72v41.82c0,7.19.2,15.65-.07,22.76l-.46.15c-.49-2.55-.29-18.65-.28-21.97v-49.23s0-185.83,0-185.83c0-5.22-.47-51.21.58-53.11Z" fill="var(--muted)"/>
    <path d="M69.08,82.94c-.29-2.62-.47-4.33-.45-7.01.87,2.63,1.08,5,1.37,7.74l-.92-.74Z" fill="var(--border) "/>
    <path d="M63.37,233.31c10.89-3.25,40.81-3.8,53.01-2.55,1.43.15.68,8.46.66,9.89-.09,5.8-.14,11.6-.14,17.4l.25,32.86c0,5.23.29,10.68-.19,15.9-.21,2.28-.76,5.6-2.33,7.39-2.81,3.18-36.31,3.6-42.78,3.88-2.31.1-4.65.57-6.95.59-1.03.01-2.13-.32-2.82-1.12-1.56-1.79-1.2-13.59-.81-16.44.05-.35.1-.69.17-1.04l1.36-.05c.74-14.71.04-29.42.06-44.13,0-6.8-.57-16.08.52-22.58Z" fill="var(--off-white)"/>
    <path d="M170.06,70.32c5.75,6.59,13.06,8.92,20.14,13.27,7.73,4.74,17.17,11.03,23.3,17.69-3.01,8.7-31.52,41.66-39.13,50.77-5.4,5.64-11.77,13.34-16.98,19.3-2.75-8.46-5.33-16.97-7.74-25.54,2.42-7.23,4.8-17.11,6.83-24.65l13.57-50.85Z" fill="var(--off-white)"/>
    <path d="M156.65,44.92c6.66-.3,11.6-.92,18.1-1.89-2.61,15.25-6.98,32.26-10.9,47.21-4.23,16.2-8.62,32.35-13.17,48.47l-.54-.47-.44-.09c-.33.79-.88,2.02-1.09,2.82-9.06-32.28-17.21-64.82-24.43-97.56,7.73.9,17.92,1.93,25.54,1.74,1.88-.36,4.93-.26,6.93-.23Z" fill="var(--off-white)"/>
    <path d="M156.65,44.92c6.66-.3,11.6-.92,18.1-1.89-2.61,15.25-6.98,32.26-10.9,47.21-4.23,16.2-8.62,32.35-13.17,48.47l-.54-.47-.44-.09c.1-20.24.09-40.48-.02-60.71,0-8.64.61-24.54.04-32.29,1.88-.36,4.93-.26,6.93-.23Z" fill="var(--off-white)"/>
    <path d="M149.72,45.15c1.88-.36,4.93-.26,6.93-.23-2.45.36-3.74.39-6.23.4.32,22.09-.03,44.42.08,66.54.02,4.02.25,23.78-.36,26.38l-.44-.09c.1-20.24.09-40.48-.02-60.71,0-8.64.61-24.54.04-32.29Z" fill="var(--muted)"/>
    <path d="M173.04,18.2c7.66,3.56,28.6,25.33,34.15,33.13.55.77-.36.04.63.63l.79-1.01.51.02c3.03,5.33,12.24,35.19,10.67,39.29-1.03.63-2.02.3-3.29.13-14.3-2.43-35.9-10.46-46.17-21.1.51-3.52,2.19-10.54,3.17-14.13,3.66-13.48,3.3-23.49-.46-36.97Z" fill="var(--off-white)"/>
    <path d="M125.6,17.24c.16.69-1.82,8.79-2.07,10.13-2.54,13.69,1.88,27.24,5.11,40.48-8.02,9.96-31.17,18.69-43.3,21.76l-5.15,1.1c.44-7.62,6.28-32.76,10.18-39.07,3.03-1.39,5.92-6.38,8.46-9.16,7.16-7.82,17.41-20.67,26.77-25.24Z" fill="var(--off-white)"/>
    <path d="M137.58,15.4c6.46-.96,28.1.37,34.16,2.64,2.95,8.3,3.22,15.26,2.98,23.92-4.42.65-8.86,1.2-13.3,1.63-13.65.97-23.78.32-37.23-1.27-.45-10.84-.09-15.47,3.14-25.76,3.11-.5,7.06-.82,10.25-1.15Z" fill="var(--off-white)"/>
    <path d="M142.24,41.85c3.21-.52,12.22-.06,16.06-.21-2.11,1.29-13.96,1.29-16.06.21Z" fill="var(--muted)"/>
    <path d="M128.07,40.95c2.9-.25,10.14.58,13.19.94-2.85.47-10.45.09-13.19-.94Z" fill="var(--muted)"/>
    <path d="M149.7,138.15l.44.09.54.47c-.32,1.27-.64,3.54-1.43,4.29-.42-.95-.44-1-.64-2.02.2-.8.76-2.03,1.09-2.82Z" fill="var(--off-white)"/>
    <g>
      <path d="M155.38,202.55c1.97-.69,4.12.32,4.85,2.27.73,1.95-.23,4.13-2.17,4.9-1.29.51-2.76.29-3.83-.59-1.08-.88-1.6-2.27-1.36-3.63.24-1.37,1.2-2.5,2.51-2.96Z" fill="var(--border) "/>
      <path d="M155.59,203.31c1.51-.57,3.21.15,3.85,1.64.64,1.49,0,3.21-1.45,3.92-1,.49-2.2.39-3.11-.26-.91-.65-1.38-1.75-1.23-2.86.15-1.11.89-2.04,1.94-2.44Z" fill="var(--off-white)"/>
    </g>
  </g>
  <g id="ap-">
    <circle id="ap-shoulder-left" cx="82.33" cy="56.12" r="2" fill="none"/>
    <circle id="ap-shoulder-right" cx="216.19" cy="55.07" r="2" fill="none"/>
    <circle id="ap-lapel-right" cx="172.33" cy="122.84" r="2" fill="none"/>
    <circle id="ap-gorge-right" cx="183.82" cy="81.28" r="2" fill="none"/>
    <circle id="ap-gorge-left" cx="113.03" cy="81.28" r="2" fill="none"/>
    <circle id="ap-lapel-left" cx="124.34" cy="120.84" r="2" fill="none"/>
    <circle id="ap-break-left" cx="164.22" cy="201.11" r="2" fill="none"/>
    <circle id="ap-break-right" cx="157.69" cy="173.06" r="2" fill="none"/>
    <circle id="ap-underarm-right" cx="229.96" cy="152.06" r="2" fill="none"/>
    <circle id="ap-underarm-left" cx="70.91" cy="148.06" r="2" fill="none"/>
    <circle id="ap-wrist-left" cx="37.08" cy="299.43" r="2" fill="none"/>
    <circle id="ap-hem-left" cx="101.14" cy="482.28" r="2" fill="none"/>
    <circle id="ap-pocket-left" cx="84.8" cy="259.79" r="2" fill="none"/>
    <circle id="ap-hem-right" cx="200.09" cy="483.33" r="2" fill="none"/>
    <circle id="ap-wrist-right" cx="260.86" cy="297.43" r="2" fill="none"/>
    <circle id="ap-pocket-right" cx="209.23" cy="277.23" r="2" fill="none"/>
    <circle id="ap-cf-neck" cx="149.26" cy="142.99" r="2" fill="none"/>
  </g>
</svg>