<?xml version="1.0" encoding="UTF-8"?>
<svg id="Layer_1" data-name="Layer 1" xmlns="http://www.w3.org/2000/svg" viewBox="0 0 300 500">
  <path d="M121.16,26.61c.57,0,1.47.21,2.06.34,12.46,2.64,25.39,2.67,38.02,1.4,3.64-.37,7.51-.87,11.09-1.83,5.21,3.23,13.43,10.85,17.56,15.68.42.49,1.06,1.95,1.34,2.59,13.57,4.64,29.42,10.98,41,19.57,2.41,1.78,3.68,3.37,4.91,6.11,2.88,6.39,5.31,13.16,7.81,19.73,5.13,13.38,10.14,26.82,15.03,40.29,3.36,8.94,6.68,17.91,9.95,26.88,1.6,4.31,5.53,13.91,6.02,18.12-2.34,2.75-45.43,20.14-50.3,21.87-2.13-4.37-4.68-11.85-6.1-16.38-.62,6.23-2.3,13.34-4.85,19.15-.44,1-2.58,3.54-3.38,4.47.09.42.18.84.24,1.26.51,3.19,1.35,11-.57,13.64,16.67,27.03,23.36,81.24,27.01,112.92,1.7,14.62,3.27,29.25,4.72,43.89,1.27,12.11,2.4,24.23,3.38,36.36.44,5.43.91,10.86,1.22,16.3.18,3.1-1.94,3.88-3.94,5.98-6.4,6.74-10.81,14.77-17.18,21.59-12.98,13.87-32.39,18.14-50.71,18.62-7.55.5-15.13.27-22.69.31-.78,0-1.7,1.07-2.52,1.12-1.71.12-3.47.06-5.19.05-8.66-.04-17.3-.41-25.93-1.11-25.04-2.06-43.69-5.82-58.84-27.57-4.63-6.66-7.86-12.23-14.54-16.92.08-4.69,1.04-12.12,1.52-17.02l3.34-33.41c3.77-37.72,7.04-75.81,14.98-112.89,2.49-12.15,5.88-24.09,10.14-35.73,1.6-4.24,3.61-8.1,5.71-12.07.12-.22-.03-1.99-.04-2.34-.18-4.24-.42-8.66.35-12.85-6.28-5.97-7.58-14.78-8.41-23.14-1.45,2.79-4.63,13.19-5.81,14.59-.39.46-.86.7-1.47.7-3.25,0-45.94-19.48-48.47-21.98.3-3.02,4.4-13.19,5.68-16.58,3.97-10.66,8.01-21.3,12.1-31.91,4.94-13.08,9.96-26.12,15.05-39.14,1.21-3.1,6.72-17.53,8.18-19.65,5.27-7.62,24-14.83,32.75-18.3,2.99-1.19,7.52-3.05,10.3-3.81.29-.7.97-2.32,1.42-2.87,4.32-5.28,12.57-12.1,18.06-16.01Z" fill="var(--black)"/>
  <path d="M82.73,220.32c1.81.32,3.5.47,5.32.64l.57.17c3.64.14,7.85.72,11.31.74.94,0,1.63-.02,2.57.17,4.75.28,9.8.61,14.57.61l.48.13,5.51.04c5.09-.03,13.36-.25,18.14,0l4.5-.07c.92-.18,3.55-.24,4.61-.29l1.11.12c.39.51.18,25.72.15,28.72l.31,195.87c0,2.23-.18,27.51-.48,28.06-.59.21-.78.26-1.39.38-8.53.26-18.98-.16-27.58-.77-20.21-1.43-40.47-3.89-55-19.63-8.17-8.84-11.2-17.44-20.7-24.83l6.28-63.12c3.21-30.91,6.05-62.66,12.37-93.09,2.73-13.14,9.4-43.4,17.36-53.86Z" fill="var(--off-white)"/>
  <path d="M150.01,475.62c-.21-1.27.26-2.55-.13-4.11-.53-.64-.29-.44-1.28-.64l.12-.26c.51,0,.98-.02,1.49-.04.46-.72-.21-3.65-.19-4.77.02-1.83,0-3.72,0-5.54l.13-42.45c.02-3.96,0-7.91-.03-11.87,0-1.58.24-2.41.39-3.86.03-.25-.47-1.78-.46-2.59.04-6.83.13-13.7.3-20.53.06-2.44-.62-10.51.06-12.38l.21.21c-.5,2.35-.28,2.8.27,5.14l-.05-.06c.59,1.83-1.57,4,.31,5.04-.24-3.41.41-11.94-.45-15.72-1.03-4.47-.94-53.43-.21-54.7l.4.1.24.48c-.1.13-.32.47-.35.6-.25,1.14-.03,8.26.27,8.92.76-.82-.63-63.26.54-65.27l.31,195.87c0,2.23-.18,27.51-.48,28.06-.59.21-.78.27-1.39.38Z" fill="var(--border)"/>
  <path d="M99.94,221.88c.94,0,1.63-.02,2.57.17-.56.04-1.04.04-1.6.04-.87.91-1.16,5.9-1.36,7.38l-1.81,13.49-4.98,36.2c-.94,7.22-1.6,14.45-2.72,21.69.34-9.35,10.31-77.68,9.98-78.72-.03-.08-.06-.16-.08-.24Z" fill="var(--muted)"/>
  <path d="M123.07,222.82c5.09-.03,13.36-.25,18.14,0-2.43.55-10.61.06-13.8.33.49,2.63.84,7.78,1.12,10.57.66,6.51,1.42,13.01,2.29,19.49.4,2.89.45,4.43,1.04,7.35-1.82-3.76-4.37-31.6-4.75-37.5-1.51,0-2.52,0-4.03-.24Z" fill="var(--muted)"/>
  <path d="M88.06,220.97l.57.17c-5.01,10.57-9.31,22.35-12.2,33.66-.21.84-.61,1.62-.8,2.4l-.07.27c.36-2.54,1.24-5.26,1.94-7.78,1.77-6.58,4.02-12.9,6.47-19.25,1.05-2.72,3.45-6.95,4.09-9.46Z" fill="var(--muted)"/>
  <path d="M145.7,222.75c.92-.18,3.54-.24,4.61-.29.23,1.65.5,13.82-.1,14.65-.15-4.79-.22-9.57-.21-14.37-1.38.05-2.94.16-4.3,0Z" fill="var(--muted)"/>
  <path d="M117.08,222.65l.48.13c.03,7.16-.29,14.33-.29,21.51-.34-2.46-.22-11.54-.24-14.51l.05-7.13Z" fill="var(--muted)"/>
  <path d="M117.02,229.79c.02,2.97-.1,12.05.24,14.51l.11.91-.16.17c-.65-1.29-.37-13.36-.2-15.59Z" fill="var(--border)"/>
  <path d="M143.72,328.76c1.65-.4,3.31.61,3.72,2.26.4,1.65-.61,3.31-2.25,3.72-1.65.41-3.32-.6-3.73-2.25-.41-1.66.61-3.32,2.26-3.73Z" fill="var(--black)"/>
  <path d="M143.39,329.5c.82-.38,1.78-.28,2.51.26.73.54,1.1,1.43.97,2.33-.13.9-.74,1.65-1.58,1.97-1.24.46-2.63-.14-3.14-1.36s.04-2.63,1.24-3.19Z" fill="var(--off-white)"/>
  <path d="M143.98,281.04c1.57-.22,3.05.82,3.36,2.38.32,1.56-.62,3.09-2.16,3.51-1.08.29-2.24-.04-3-.86-.76-.82-1-2-.63-3.06.38-1.06,1.31-1.82,2.42-1.97Z" fill="var(--black)"/>
  <path d="M143.52,281.76c.81-.31,1.73-.16,2.4.4.67.55.99,1.42.83,2.28-.15.86-.75,1.56-1.57,1.85-1.24.44-2.62-.2-3.07-1.44-.45-1.24.17-2.62,1.41-3.09Z" fill="var(--off-white)"/>
  <path d="M143.57,242.2c1.56-.5,3.23.36,3.73,1.92.5,1.56-.35,3.23-1.9,3.74-1.56.51-3.25-.34-3.75-1.91-.51-1.56.36-3.25,1.93-3.74Z" fill="var(--black)"/>
  <path d="M143.97,242.69c.84-.18,1.72.12,2.28.76s.74,1.55.45,2.36c-.29.81-.99,1.41-1.83,1.56-1.28.22-2.51-.62-2.75-1.9-.25-1.28.58-2.51,1.85-2.78Z" fill="var(--off-white)"/>
  <path d="M61.52,442.84c1.02.64,2.52,3.06,3.34,4.18-1.23-.44-2.82-3-3.34-4.18Z" fill="var(--muted)"/>
  <path d="M135.85,379.74l.44.35c.21,1.09.09,2.97.06,4.13l-.24-.19c-.34-.62-.23-3.39-.25-4.29Z" fill="var(--muted)"/>
  <path d="M150.24,257.02l.29-.08c.38.93.15,2.83.04,3.84l-.04.13-.22-.08c-.1-1.21-.07-2.6-.07-3.82Z" fill="var(--muted)"/>
  <path d="M135.9,429.4l.34.26c.31,1.03.12,3.66,0,4.77-.45-.89-.33-3.82-.35-5.03Z" fill="var(--muted)"/>
  <path d="M135.99,444.3l.18.16c.38.76.22,3.25.21,4.24-.78-.56-.47-3.42-.39-4.4Z" fill="var(--muted)"/>
  <path d="M50.35,415.09c.36,1.08,0,2.86-.19,4.02l-.29-.22c.11-1.45.22-2.38.48-3.81Z" fill="var(--muted)"/>
  <path d="M52.1,430.57c.88.3,1.89,1.78,2.46,2.56-1.37-.52-1.76-1.35-2.46-2.56Z" fill="var(--muted)"/>
  <path d="M84.42,233.05c.26.84-.67,2.75-1.03,3.68-.22-.89.66-2.73,1.03-3.68Z" fill="var(--muted)"/>
  <path d="M150.29,274.4l.27.2c.34.62.21,1.63.2,2.39l-.33-.26c-.32-.68-.18-1.55-.14-2.34Z" fill="var(--muted)"/>
  <path d="M150.27,289.94c.77.65.39,1.56.28,2.52l-.13-.03c-.37-.64-.17-1.63-.14-2.5Z" fill="var(--muted)"/>
  <path d="M136.88,252.33c.65.52.45,1.55.43,2.33l-.29-.21c-.37-.6-.2-1.37-.15-2.13Z" fill="var(--muted)"/>
  <path d="M136.15,439.3c.43.95.24,1.77.1,2.79-.5-1.02-.35-1.76-.1-2.79Z" fill="var(--muted)"/>
  <path d="M135.96,389.47l.26.22c.3.77.14,1.41.06,2.25l-.19-.16c-.34-.7-.19-1.5-.13-2.31Z" fill="var(--muted)"/>
  <path d="M150.29,286.21c.52.49.36,1.34.47,2.36l-.41-.02c-.25-.86-.14-1.45-.06-2.33Z" fill="var(--muted)"/>
  <path d="M136.09,434.81l.18.07c.28.62.08,1.44,0,2.16-.28-.73-.51-1.51-.17-2.23Z" fill="var(--muted)"/>
  <path d="M135.87,356.95l.29.21c.38.6.25,1.42.24,2.18-.56-.86-.5-1.39-.53-2.39Z" fill="var(--muted)"/>
  <path d="M135.92,361.91l.27.2c.35.59.19,1.37.14,2.1-.61-.64-.43-1.37-.41-2.3Z" fill="var(--muted)"/>
  <path d="M135.92,424.46l.33.26c.27.66.12,1.3.04,2.03-.58-.63-.4-1.38-.38-2.29Z" fill="var(--muted)"/>
  <path d="M135.96,451.54l.24.19c.34.71.19,1.48.13,2.3-.58-1.13-.45-1.24-.38-2.49Z" fill="var(--muted)"/>
  <path d="M137.08,242.69l.29.23c.34.77.18,1.43.09,2.29-.47-1.05-.43-1.4-.38-2.52Z" fill="var(--muted)"/>
  <path d="M136.16,396.97c.39.78.19,1.52-.07,2.29-.38-.78-.18-1.53.07-2.29Z" fill="var(--muted)"/>
  <path d="M135.98,369.5c.54.47.38.93.37,1.58l-.26.07c-.35-.44-.17-.93-.11-1.65Z" fill="var(--muted)"/>
  <path d="M136.22,409.46c.25.93.14,1.39.03,2.33-.57-.89-.4-1.38-.03-2.33Z" fill="var(--muted)"/>
  <path d="M135.9,402.13l.27.19c.36.56.22,1.16.18,1.87-.65-.58-.47-1.24-.45-2.06Z" fill="var(--muted)"/>
  <path d="M135.94,385.19c.28-.08.13-.09.45.08l-.07.86-.18.05-.27-.15.06-.85Z" fill="var(--muted)"/>
  <path d="M135.94,367.55c.29-.09.13-.09.46.08l-.07.85h-.41s.02-.93.02-.93Z" fill="var(--muted)"/>
  <path d="M200.39,220.94c2.35-.57,6.71-.94,9.25-1.24,5.56,7.89,8.69,17.34,11.49,26.51,11.6,38.03,15.18,79.52,19.36,119,1.76,15.97,3.31,31.96,4.64,47.96.48,5.95,1.09,12.01,1.37,17.94-6.42,4.09-11.53,13.14-16.34,19.23-4.44,5.63-8.74,9.98-14.89,13.83-16.86,10.56-43.22,10.85-62.8,10.24.27-50.3.24-100.6-.09-150.9,5.56,3.66,12.85,6.4,19.22,8.33-.74-9.17-.72-18.64-1.14-27.79-1.16-25.12-.56-50.06,2.87-74.99.39-2.8.77-5.85,1.02-8.67l.25.16c1.55,1,3.43,1.35,5.24.96.68-.15,1.33-.53,1.96-.83.48,1.27.91,5.35,1.14,6.99.79,5.33,1.51,10.67,2.17,16.01,2.87,25.1,5.21,50.26,7.04,75.46.55,7.71,1.06,15.41,1.52,23.12.18,3.06.41,10.12.97,12.9,2.83-1.32,17.49-12.24,19.82-14.66-.03-3.44-.67-8.47-1.02-11.98-.66-7.02-1.4-14.02-2.21-21.02-2.45-21.2-4.83-42.64-9.22-63.53-1.48-7.04-3.36-16.2-6.14-22.71.88-.08,3.45-.4,4.17-.23l.33-.09Z" fill="var(--off-white)"/>
  <path d="M200.06,221.04l.33-.09c5.13,7.89,9.17,16.43,12.01,25.39h-.29c-2.55-8.59-7.57-17.6-12.06-25.3Z" fill="var(--muted)"/>
  <path d="M212.4,246.34c.26.48,2.1,6.13,2.15,6.61l-.19.12c-.8-1.57-1.71-4.91-2.25-6.73h.29Z" fill="var(--muted)"/>
  <path d="M178.75,234.02c.47.67.34,3.54.37,4.53.21,5.82.63,11.68.57,17.5-.83-1.76-.99-19.07-.94-22.03Z" fill="var(--muted)"/>
  <path d="M155.63,382.11s.1.06.14.1c.64.65.37,7.75.38,9.11l-.45-.42c-.22-1.89-.07-6.67-.07-8.8Z" fill="var(--muted)"/>
  <path d="M243.28,417.61l.54.42c.33,1.28.31,2.95.27,4.27-.72-.91-.37-3.06-.81-4.69Z" fill="var(--border)"/>
  <path d="M155.67,394.37c.8.63.42,3.51.35,4.58l-.27-.21c-.22-1.09-.11-3.18-.09-4.37Z" fill="var(--muted)"/>
  <path d="M155.58,407.5l.47.42c.14,1.21.03,2.66-.03,3.9l-.36-.3c-.08-1.33-.07-2.68-.08-4.02Z" fill="var(--muted)"/>
  <path d="M155.68,377.45c.66.51.31,2.62.53,4h-.46c-.26-.91-.11-2.97-.08-4Z" fill="var(--muted)"/>
  <path d="M229.16,444.51l.14.11c.07.58-1.67,2.83-2.11,3.46l-.22-.3c.64-1.11,1.45-2.21,2.19-3.26Z" fill="var(--muted)"/>
  <path d="M155.64,364.95c.61.83.48,2.89.48,3.99l-.26-.19c-.4-.64-.24-2.9-.23-3.8Z" fill="var(--muted)"/>
  <path d="M180.04,222.3l.13.08c.04.96-.66,2.75-.98,3.74l-.22-.07c0-.91.75-2.81,1.08-3.76Z" fill="var(--muted)"/>
  <path d="M243.16,426.79l.33.13c.03.51-.62,1.23-.99,1.75-.25.08-.22.04-.5,0,.2-.72.71-1.28,1.17-1.88Z" fill="var(--border)"/>
  <path d="M155.66,460.01l.27.23c.31.89.19,1.59.14,2.54-.66-.51-.43-1.92-.41-2.77Z" fill="var(--muted)"/>
  <path d="M155.67,421.64l.26.2c.36.72.19,1.5.13,2.34l-.22-.17c-.32-.59-.19-1.65-.17-2.37Z" fill="var(--muted)"/>
  <path d="M155.71,452.5c.67.51.4,1.62.32,2.36l-.2-.1c-.35-.65-.17-1.48-.11-2.26Z" fill="var(--muted)"/>
  <path d="M155.72,359.37c.61.65.37,1.5.3,2.34l-.19-.09c-.36-.64-.18-1.47-.11-2.25Z" fill="var(--muted)"/>
  <path d="M155.67,450.34l.27.07c.34.6.21,1.01.19,1.79-.68-.52-.48-1.08-.46-1.86Z" fill="var(--muted)"/>
  <path d="M155.72,442.16c.5.65.4,1.46.42,2.3l-.35-.26c-.3-.66-.14-1.29-.06-2.04Z" fill="var(--muted)"/>
  <path d="M155.65,432.22l.28.2c.36.57.19,1.14.11,1.85-.56-.48-.38-1.35-.39-2.05Z" fill="var(--muted)"/>
  <path d="M155.75,447.36c.48.6.33.66.36,1.55l-.28.08c-.34-.43-.14-.94-.08-1.63Z" fill="var(--muted)"/>
  <path d="M155.71,429.69c.58.47.41,1.35.42,2.06l-.27-.2c-.37-.57-.21-1.15-.15-1.86Z" fill="var(--muted)"/>
  <path d="M163.65,470.1c.81-.21.92-.19,1.73.02-.73.33-1.1.54-1.73-.02Z" fill="var(--muted)"/>
  <path d="M60,67.22c2.32-2.54,9.96-7.25,9.96-7.25,0,0,5.8-2.52,12.62-5.48,6.95-3.01,14.95-6.46,18.93-8.12l-3.45,25.56c-.25,1.81-1.99,10.55-.92,11.49,1.6-.16,5.86-1.4,7.56-1.86l14.92-4.09c-.45,1.14-3.1,9.37-2.39,9.83,6.7,4.33,13.12,9.01,19.34,14.01,3.45,2.78,7.45,5.4,10.39,8.73,1.2,1.36,2.62,4.43,3.47,6.13,2.25,4.25,1.51,12.16,1.49,17.19l-.36,28.32c.08,2.38-.04,4.77.03,7.13.42,13.01-.75,26.91.06,39.85-1.07-.03-2.61-.03-3.61-.2-2.21.03-4.82-.08-7.03-.24-15.93-1.09-32.81-.71-48.64-2.63l-1.6-2.37-.39.18,1.48,2.25c-2.19-.37-5.64-.65-7.89-.78-1.88-1.36-4.58-3.38-5.42-5.6-5.79-15.21-5.43-33.51-6.33-49.6-1.53-27.16-2.61-56.71-12.22-82.44Z" fill="var(--off-white)"/>
  <path d="M150.44,116.18c2.25,4.24,1.51,12.16,1.49,17.19l-.35,28.32c-.93,1.53.52,16.92-.72,19.77-.31.21-.57.38-.79.53-.08-4.19,0-5.83.46-10.08-.12-.17-.47-.73-.45-.88.36-2.78-.47-12.17.43-14.3-.52-1.88-.05-12.96,0-15.31-.18-1.19-.11-1.44.08-2.61l.24-.11-.12-.27c.25-1.59.21-7.47-.15-9.05-.19-.45-.1-.79-.06-1.29.13-2.6-.02-6.21-.05-8.89-.47-1.16-.43-1.87,0-3.02Z" fill="var(--muted)"/>
  <path d="M150.5,141.41l.35.2c-.12,2.47-.03,13.97-.35,15.11-.52-1.88-.05-12.96,0-15.31Z" fill="var(--muted)"/>
  <path d="M150.44,119.19c.47.82.36,6.63.44,8.19l-.39.7c.13-2.6-.02-6.21-.05-8.89Z" fill="var(--muted)"/>
  <path d="M150.06,181.99c.22-.14.48-.32.79-.53,1.24-2.85-.2-18.24.72-19.77.08,2.38-.04,4.77.03,7.13.42,13.01-.75,26.91.06,39.85-1.07-.03-2.61-.03-3.61-.2.64-.07,1.44-.1,2.1-.13-.26-1.41-.14-7.94-.06-9.6.07-.16-.04-15.51-.04-16.74Z" fill="var(--muted)"/>
  <path d="M150.09,198.73c.66.92.6,8.55.06,9.6-.27-1.41-.14-7.94-.06-9.6Z" fill="var(--muted)"/>
  <path d="M84.59,190.31c1.34,3.58,2.66,7.05,4.62,10.33.51.86,1.09,1.7,1.56,2.57l-.39.17c-2.75-3.57-4.65-8.81-6.08-13.03l.29-.05Z" fill="var(--muted)"/>
  <path d="M150.55,129.37c.36,1.58.4,7.46.15,9.05-.45-1.3-.2-7.46-.15-9.05Z" fill="var(--muted)"/>
  <path d="M84.3,190.36c-.36-.79-.95-2.21-1.14-3.05l.31-.31-.27-.28-.08.25.14-.22c.58.84,1.07,2.53,1.34,3.56l-.29.05Z" fill="var(--muted)"/>
  <path d="M103.26,122.48c2.87-.14,21.48-.57,23.47.23.57,1,.59,2.29.67,3.41.46,6.83,2.04,48.61-1.64,52.3-4.33,4.34-19.61,4.16-25.67,4.15-4.59,0-16.37.03-19.21-3.35-2.49-2.96-2.96-15.65-3.28-19.94-.89-11.88-1.86-23.98-1.69-35.85,2.28-.53,7.3-.55,9.77-.61l17.59-.33Z" fill="var(--black)"/>
  <path d="M114.72,122.93c3.89-.05,7.77-.06,11.66-.03.51,3.22.78,10.81.82,14.37.07,5.88,1.28,38.24-2.32,40.97-6.04,4.58-26.95,3.86-34.97,3.22-3.88-.29-9.3-1.09-9.96-5.71-1.57-11.02-2.17-22.43-2.81-33.55-.34-6.01-.75-12.37-.65-18.34,4.52-.4,9.34-.4,13.89-.51l24.34-.43Z" fill="var(--off-white)"/>
  <path d="M125.46,145.7l.45.37c.28,1.23.09,3.18,0,4.47l-.22-.11c-.33-.57-.22-3.83-.22-4.72Z" fill="var(--border)"/>
  <path d="M125.1,128.63c.49.73.42.9.41,1.83l-.27.08c-.34-.45-.17-1.19-.14-1.91Z" fill="var(--muted)"/>
  <path d="M125.34,161.76c.29-.09.13-.09.47.08l-.07.87h-.37s-.03-.95-.03-.95Z" fill="var(--muted)"/>
  <path d="M143.19,197.28c1.03-.38,2.19-.18,3.02.53.83.71,1.22,1.82,1.01,2.89-.21,1.08-.99,1.96-2.04,2.3-1.57.51-3.26-.33-3.8-1.88-.54-1.56.26-3.26,1.81-3.84Z" fill="var(--black)"/>
  <path d="M143.62,197.74c1.29-.33,2.6.42,2.96,1.7.36,1.28-.37,2.6-1.64,2.99-.85.25-1.76.03-2.4-.58-.63-.61-.89-1.52-.66-2.37.23-.85.89-1.52,1.75-1.74Z" fill="var(--off-white)"/>
  <path d="M144.41,118.96c1.54-.55,3.24.24,3.81,1.76.58,1.53-.17,3.24-1.69,3.85-1.01.4-2.15.23-3-.45-.84-.68-1.25-1.77-1.07-2.84.18-1.07.93-1.96,1.95-2.32Z" fill="var(--black)"/>
  <path d="M144.71,119.46c.83-.25,1.73-.03,2.36.57.62.6.87,1.5.65,2.34-.22.84-.87,1.49-1.71,1.71-1.27.33-2.57-.41-2.92-1.67s.37-2.57,1.62-2.95Z" fill="var(--off-white)"/>
  <path d="M143.37,159.18c1.54-.58,3.26.2,3.83,1.75.57,1.54-.22,3.26-1.77,3.82-1.53.56-3.23-.23-3.79-1.76-.57-1.53.21-3.23,1.74-3.8Z" fill="var(--black)"/>
  <path d="M143.72,159.67c.83-.26,1.74-.04,2.36.57.62.61.87,1.51.63,2.35-.23.84-.91,1.48-1.76,1.68-1.24.29-2.5-.46-2.83-1.7-.33-1.24.37-2.52,1.6-2.89Z" fill="var(--off-white)"/>
  <path d="M114.02,197.49c.64.59,4.5,7.96,5.18,9.19l-.09-.06c-1.5-1-4.31-7.44-5.09-9.12Z" fill="var(--muted)"/>
  <path d="M72.46,134.18l.19-.03c.36.66.17,4.76.54,6.41h-.36c-.4-.72-.26-4.98-.37-6.38Z" fill="var(--muted)"/>
  <path d="M64.34,76.42c.76.62,1.51,3.99,1.8,5.12-.89-.55-1.48-3.88-1.8-5.12Z" fill="var(--muted)"/>
  <path d="M72.89,141.79c.52,1.12.46,1.3.41,2.51l-.27-.24c-.32-.75-.19-1.43-.14-2.26Z" fill="var(--muted)"/>
  <path d="M70.84,112.08l.34.05.26,1.84c-.65-.47-.53-1.14-.6-1.89Z" fill="var(--muted)"/>
  <path d="M191.26,45.85c11.86,4.03,35.55,13.27,43.44,22.43-1.32,3.91-2.63,7.44-3.82,11.42-3.22,11.13-5.58,22.49-7.06,33.98-1.04,7.94-1.77,15.93-2.18,23.93-.78,14.77-1.21,51.69-8.82,63.64-1.01,1.58-2.43,2.85-4.11,3.68-1.28.63-4.59,1.4-5.94,1.28l-.24-.29c-1.04,1.14-14.25,2.56-17.23,3.25-.34-.54-.8-1.3-1.4-1.52-4.05-1.54-11.86-1.08-15.42,1.15-.33.21-.65.42-.97.64-5.09-.46-10.18-.38-15.16-.78-.12-18.48-.06-36.96.16-55.43.16-7.6.26-15.21.3-22.81.03-12.01.32-11.64-5.59-22.26,3.49-2.92,7.47-5.5,11.13-8.22,4.57-3.4,9.08-6.98,14.33-9.29.76-.33,1.58-.65,2.3-1.05-.34-4.25-1.39-7.94-2.57-12.04,6.21,2.02,17.63,4.91,24.17,6.44-1.07-8.68-2.21-17.35-3.43-26-.58-3.99-1.08-8.22-1.9-12.15Z" fill="var(--off-white)"/>
  <path d="M202.54,205.93c1.77-3.49,3.61-6.88,5.02-10.54.29-.75,1.08-3.21,1.49-3.52-.85,3.81-4.18,11.18-6.27,14.34l-.24-.29Z" fill="var(--muted)"/>
  <path d="M166.09,122.35c1.86-.08,4.17-.03,6.03.06,14.58.65,29.8-.03,44.34.91-.02,15.66-1.99,32.29-3.18,47.91-.19,2.54-.68,5.84-2.31,7.83-7.13,5.56-29.81,3.31-38.31,1.94-7.06-1.14-7.64-4.11-8-10.71-.34-6.19-1.1-45.06,1.43-47.94Z" fill="var(--black)"/>
  <path d="M166.1,123.06c3.79-.32,13.92.05,18.1.18,10.38.33,21.29.15,31.58.66.22,3.36-.49,12.27-.72,16.19-.42,7.47-.95,14.93-1.59,22.38-.35,3.95-.8,12.49-2.6,15.72-.14.16-.17.19-.31.32-4.7,4.25-20.48,3.57-26.62,3.21-3.75-.22-14.47-.8-16.97-3.92-3.5-4.38-1.89-46.99-.87-54.73Z" fill="var(--off-white)"/>
  <path d="M166.67,170.47l.38-.05c.15,1.67.31,4.72.76,6.19-1.18-.88-1.12-4.67-1.14-6.13Z" fill="var(--muted)"/>
  <path d="M213.53,132.58l.33-.05c0,1.31,0,2.49-.14,3.8l-.4.17-.43-.02c.62-.87.64-2.86.64-3.89Z" fill="var(--muted)"/>
  <path d="M225.11,92.37c.08.17.24.5.19.68-.74,2.71-1.6,9.5-2.4,11.75-.52-1.04,1.81-10.71,2.21-12.43Z" fill="var(--muted)"/>
  <path d="M155.25,105.07l.33.31c.24,1.25.05,2.65-.05,3.94l-.22-.08c-.31-.69-.08-3.24-.05-4.17Z" fill="var(--muted)"/>
  <path d="M221.15,115.44l.17.14c.31.56-.13,3.17-.22,3.99l-.24-.08c-.17-1.02.15-2.95.29-4.05Z" fill="var(--muted)"/>
  <path d="M155.16,138.95c.8.81.5,2.64.41,3.71l-.26-.23c-.24-.82-.16-2.54-.15-3.48Z" fill="var(--muted)"/>
  <path d="M221.78,110.48c.46,1.03-.11,3.2-.31,4.43-.4-1.13.05-3.22.31-4.43Z" fill="var(--muted)"/>
  <path d="M199.38,54.15c.94-.2,2.56.45,3.36.93-.67.18-2.76-.6-3.36-.93Z" fill="var(--muted)"/>
  <path d="M231.22,70.28c.23.75-.51,2.81-.78,3.73-.44-1.23.27-2.5.78-3.73Z" fill="var(--muted)"/>
  <path d="M227.46,83.69c.43.91-.39,2.33-.81,3.16-.08-.77.54-2.34.81-3.16Z" fill="var(--muted)"/>
  <path d="M155.18,200.57c.36.79.31,1.13.13,1.95l-.2-.11c-.27-.52-.03-1.23.08-1.84Z" fill="var(--muted)"/>
  <path d="M235.4,69.32c1.65,1.96,8.74,21.72,9.99,25.02l17.56,47.11c4.11,11.07,8.55,22.52,12.3,33.67-2.05,1.2-6.23,2.96-8.51,3.99-5.53,2.51-11.1,4.96-16.69,7.34l-23.86,9.75c-.11-.21-.22-.42-.33-.64-1.67-3.45-4.65-11.82-5.64-15.65-.24-2.51.31-5.81.54-8.23,1.36-14.81,1.31-29.69,2.51-44.52,1.62-20.1,5.35-38.89,12.12-57.84Z" fill="var(--off-white)"/>
  <path d="M238.06,81.82c-.09-1.07-.07-1.2.19-2.25l.21.02-.06.66c.07,9.12-1.57,22.98-2.41,32.14-1.2,13.86-2.72,27.68-4.55,41.48-.83,6.08-1.68,12.7-2.96,18.68-.02-1.93.87-6.71,1.2-8.93.76-5.08,1.46-10.17,2.12-15.27,1.69-14.24,3.16-28.51,4.41-42.79.61-6.76,1.8-17.2,1.85-23.73Z" fill="var(--muted)"/>
  <path d="M238.06,81.82c-.09-1.07-.07-1.2.19-2.25l.21.02-.06.66c-.05.73.06,1.09-.34,1.58Z" fill="var(--muted)"/>
  <path d="M59.31,68.43c.17.19.34.51.42.75,11.58,34.1,10.62,70.34,12.69,105.82.03,1.46.42,3.68.07,5.06-1.37,5.33-4.06,10.95-6,16.1-2.03-.53-6.4-2.44-8.47-3.32-5.14-2.19-10.27-4.42-15.38-6.7-6.98-3.48-17.72-7.72-24.08-11.64l26.54-70.57,8.13-20.95c1.88-4.77,3.84-9.98,6.08-14.56Z" fill="var(--off-white)"/>
  <path d="M58.01,83.79c-.35-1.74-.37-3.83,0-5.57l.17.06c.12.51.06.86.03,1.38-.05,6.44,1.09,17.3,1.62,23.9l3.91,45.04c.44,4.85,1.92,14.77,1.85,18.99-.54-1.87-.85-6.19-1.11-8.28-1.04-8.45-1.71-17-2.47-25.48-1.03-11.07-1.98-22.14-2.85-33.22-.34-4.19-1.26-12.94-1.16-16.82Z" fill="var(--muted)"/>
  <path d="M58.01,83.79c-.35-1.74-.37-3.83,0-5.57l.17.06c.12.51.06.86.03,1.38-.16,1.49-.18,2.64-.2,4.13Z" fill="var(--muted)"/>
  <path d="M184.03,212.89c3.82,1.64,6.96,3.12,9.59,6.49,8.89,11.38,16.63,83.89,18.38,101.71.41,4.16,1.97,14.14,1.47,17.9-.07.54-.19,1.07-.53,1.51-1.82,2.36-8.19,6.54-10.87,8.59-.96.85-1.3,1.13-2.39,1.8-.36.53-3.75,2.63-4.48,3.1-.77-9.51-1.16-19.47-1.84-29.09-1.88-27.54-4.37-55.03-7.47-82.45-.58-4.76-1.24-9.52-1.97-14.26-.25-1.6-1.58-8.14-.96-9.28.41.19.93,1.45,1.28,2.03.1-.63-.71-2.25-1.02-2.99.21-1.97.38-3.12.8-5.05Z" fill="var(--off-white)"/>
  <path d="M199.69,350.88c-.5-.26-.42-.16-1.12-.04l-.24-.31c1.42-.97,1.39-1.6,3.52-2.57.03.36.05.5.15.85l.08.28c-.96.85-1.3,1.13-2.39,1.8Z" fill="var(--border)"/>
  <path d="M195.11,232.33c.66.58,3.93,10.41,4.3,11.86.81,3.17,2.01,8.15,2.35,11.41l-.31.05c-.56-1.06-1.8-9.29-2.32-11.23-.96-3.55-3.54-8.84-4.02-12.1Z" fill="var(--border)"/>
  <path d="M185.17,217.04c.06.04.11.09.16.13,2.48,2.18,5.39,13.91,5.56,17.23-1.59-3.56-1.29-5.53-2.23-8.93-.67-2.43-2.45-5.96-3.49-8.43Z" fill="var(--muted)"/>
  <path d="M207.85,302.59s.05.04.07.06c1.09,1.04,1.39,9.15,1.48,11.06-.13-.13-.27-.26-.4-.39-.28-3.02-.81-7.9-1.15-10.73Z" fill="var(--border)"/>
  <path d="M210.65,327.8c.58,1.04.8,5,.93,6.38l-.21.05c-.45-.64-.66-5.32-.72-6.43Z" fill="var(--muted)"/>
  <path d="M203.7,270.43l.2-.06.26.14.21,1.51c-.56-.52-.46-.73-.66-1.58Z" fill="var(--muted)"/>
  <path d="M161.93,220.27c2.71-.74,8.09-2.87,10.53-4.14.39,1.56.57,2.1,1.24,3.57-.98,4.7-1.75,13.17-2.3,18.09-1.87,16.06-2.64,32.22-2.3,48.39.21,14.73,1.16,29.68,1.4,44.35-5.75-1.35-13.14-4.69-18.09-8.03l.04-100.15c2.23-.03,5.4-.38,7.68-.57-1.74,4.95-4.52,14.82-4.32,19.97l.63.09c1.48-9.39,2.13-12.39,5.48-21.57Z" fill="var(--off-white)"/>
  <path d="M155.82,241.74l.63.09c-.13,1.04-.22,1.86-.5,2.87-.23-.83.11-1.79-.13-2.96Z" fill="var(--muted)"/>
  <path d="M171.27,220.6c.15.51-.59,3.11-.78,3.94-.83,3.64-1.13,7.15-1.35,10.86-.94,17.9-1.16,35.84-.66,53.76-.36-.54-.29-3.82-.32-4.63-.52-14.46-.36-28.93.49-43.38.19-3.65.12-7.95.49-11.49.29-3.11,1.01-6.16,2.14-9.07Z" fill="var(--muted)"/>
  <path d="M155.39,227.81c.64.93.4,7.1-.05,8.22-.34-.9,0-6.84.05-8.22Z" fill="var(--muted)"/>
  <path d="M155.44,246.16l.29-.04c.02,1.41.01,2.53.23,3.94l-.19.2-.27-.08c-.22-1.03-.09-2.91-.06-4.02Z" fill="var(--muted)"/>
  <path d="M154.84,276.03c.66.79.31,2.97.22,4.06-.57-1.33-.41-2.64-.22-4.06Z" fill="var(--muted)"/>
  <path d="M154.96,301.95l.25.19c.38.77.3,3,.32,3.99l-.36-.21c-.04-1.32-.11-2.65-.21-3.97Z" fill="var(--muted)"/>
  <path d="M155.12,311.54c.84.62.6,2.02.6,3.04-.26.08-.1.06-.47,0,0-1.14-.03-1.92-.13-3.05Z" fill="var(--border)"/>
  <path d="M154.75,271.64l.33-.1.17.24c0,.85.02,1.44-.18,2.28l-.27-.17-.05-2.25Z" fill="var(--border)"/>
  <path d="M154.74,296.29l.27.2c.35.59.23,1.41.2,2.15-.56-.82-.47-1.36-.48-2.35Z" fill="var(--muted)"/>
  <path d="M161.5,225.79l.16.17c.07.7-.42,1.36-.77,2.02h-.07c-.2-.52.4-1.52.69-2.19Z" fill="var(--muted)"/>
  <path d="M171.98,43.61c.15.03.19.14.34.29-.12,2.05-.69,4.29-1.01,6.32-1.46,9.25-4.97,15.96-9.19,24.1-5.1,9.81-11.44,19.4-16.33,29.25-2.78-5.92-6.13-11.88-9.24-17.67-8.06-14.71-14.59-24.92-15.76-41.96,13.59,3.77,37.74,3.2,51.19-.33Z" fill="var(--off-white)"/>
  <path d="M82.64,205.26c8.82,1.69,24.91,2.32,34.43,2.79,16.55.78,33.09,1.47,49.65,2.06-2.37,2.56-3.14,4.53-4.7,7.64l-1.37,3.07c-20.11,1.92-41.64,1.36-61.83.15-4.44-.27-12.22-.74-16.25-1.7-.66-4.65-.64-9.37.07-14.02Z" fill="var(--off-white)"/>
  <path d="M131.48,210.42c1.39-.25,4.24-.21,5.7-.1.56.04.4.06.79.55-1.67-.05-4.97-.11-6.49-.45Z" fill="var(--muted)"/>
  <path d="M96.49,208.1c.54-.19,5.28.24,5.75.65-.51.13-4.7-.27-5.5-.33l-.25-.33Z" fill="var(--muted)"/>
  <path d="M126.06,210.15c1-.11,4.84-.24,5.67.3-1.9.28-3.8.07-5.67-.3Z" fill="var(--muted)"/>
  <path d="M173.82,28.67c.29.16.22.1.45.28,3.67,2.78,12.9,10.59,15.02,14.22,2.31,3.95,5.14,32.5,6.2,39.68l-4.49-1.19-18.91-4.88c-1.09-3.75-2.73-8.22-3.99-11.97,3.34-9.36,5.48-18.48,5.93-28.49.11-2.46-.16-5.14-.21-7.65Z" fill="var(--off-white)"/>
  <path d="M190.67,61.09c.43.14,1.55,8.49,1.29,9.22l-.25-.29c-.14-1.09-1.18-8.49-1.04-8.93Z" fill="var(--muted)"/>
  <path d="M181.72,77.64c.62-.11,5.9,1.6,6.88,1.9-1.14.15-6.22-1.09-6.88-1.9Z" fill="var(--muted)"/>
  <path d="M188.96,79.78c1.42-.11,3.64.84,4.96,1.4-1.38-.06-3.73-.77-4.96-1.4Z" fill="var(--muted)"/>
  <path d="M174.38,75.54c1.15.04,2.86.76,3.95,1.17-1.4.14-2.71-.58-3.95-1.17Z" fill="var(--muted)"/>
  <path d="M171.77,74.59c1.41.13,1.82.38,3.13.95-1.48-.06-1.86-.29-3.13-.95Z" fill="var(--muted)"/>
  <path d="M120.07,28.71c-.03,2.16-.5,4.53-.54,6.84-.21,9.72,1.38,19.4,4.69,28.54-1.5,4.07-2.91,8.18-4.23,12.32-3.96,1.5-13.91,3.95-18.25,5.09l-4.32,1.09c1.5-7.25,3.88-35.25,6.33-39.15,2.97-4.73,11.72-11.13,16.31-14.73Z" fill="var(--off-white)"/>
  <path d="M172.29,27.66l.19.15c.7,1.9,1.15,14.61-.45,15.02-15.18,3.78-35.52,4.21-50.77.54-1.64-.72-.45-13.55,0-15.67,3.63.45,7.14,1.26,11.05,1.68,14.12,1.55,26.13.63,39.97-1.72Z" fill="var(--off-white)"/>
  <path d="M168.86,41.5l.42-.05-.03.24c-1.29.45-4.2.84-5.75,1.17l-.21.03-.21-.21c.63-.4,4.77-1,5.78-1.17Z" fill="var(--muted)"/>
  <path d="M126.28,42.32c.42-.12,4.57.32,4.94.64-.82.29-4.33-.1-4.94-.64Z" fill="var(--muted)"/>
  <path d="M167.46,66.27c2.02,3.52,6.03,18.82,6.67,22.76-8.35,3.53-16.45,10.27-23.97,15.71l-3.54,2.66-.47-2.51c7-12.99,14.35-25.52,21.31-38.63Z" fill="var(--off-white)"/>
  <path d="M124.69,65.58c.38.33,9.33,17.63,10.39,19.58,2.67,4.91,9.87,17.17,10.72,22.22l-4.06-3.18c-6.76-5.3-16.66-13.36-23.87-17.27,1.69-6.81,4.42-14.71,6.82-21.35Z" fill="var(--off-white)"/>
  <path d="M210.24,205.69c.88.89,1.22,12.29.18,12.62-4.45,1.4-10.26,1.6-14.98,2.26-1.58-2.29-2.32-3.34-4.51-5.14-2.09-1.63-3.8-1.75-5.71-3.1-.45-1.4.3-2.22,1.66-2.52,7.74-1.72,15.63-2.16,23.35-4.12Z" fill="var(--off-white)"/>
  <path d="M208.54,217.21l.86-.14.08.19c-1.51.52-1.99.56-3.6.72-.35.19-.39.14-.8.12l-.12-.19c1.03-.42,2.44-.55,3.58-.7Z" fill="var(--muted)"/>
  <path d="M173.69,207.81c2.48-.27,8.95-.73,10.52,1.36-.03,1.21-2.01,8.79-2.78,10.17-.5.9-1.19,1.16-2.13,1.43-.92.03-2.08-.06-3.02-.12-3.76-2.57-2.46-6.34-4.04-9.96-.32-.73-2.68-.73-3.89-.93,2.18-1.53,2.67-1.66,5.34-1.95Z" fill="var(--off-white)"/>
  <path d="M167.43,210.47c1.08.04,1.92.31,2.96.6l-.38.44c2.49.82,2,1.2,2.29,3.82-2.03.93-3.67,1.67-5.77,2.41-1.39.55-2.78,1.1-4.17,1.66.93-2.59,3.1-7.07,5.07-8.92Z" fill="var(--off-white)"/>
  <g id="ap-">
    <circle id="ap-cf-neck" cx="146.21" cy="106.28" r="2" fill="none"/>
    <circle id="ap-shoulder-left" cx="78.47" cy="55.79" r="2" fill="none"/>
    <circle id="ap-shoulder-right" cx="220.22" cy="57.67" r="2" fill="none"/>
    <circle id="ap-underarm-right" cx="221.47" cy="154.57" r="2" fill="none"/>
    <circle id="ap-underarm-left" cx="71.57" cy="151.12" r="2" fill="none"/>
    <circle id="ap-waist-left" cx="92.58" cy="206.94" r="2" fill="none"/>
    <circle id="ap-waist-right" cx="202.03" cy="207.26" r="2" fill="none"/>
    <circle id="ap-hip-right" cx="224.61" cy="255.24" r="2" fill="none"/>
    <circle id="ap-hip-left" cx="69.06" cy="256.81" r="2" fill="none"/>
    <circle id="ap-hem-left" cx="54.64" cy="439.68" r="2" fill="none"/>
    <circle id="ap-hem-center" cx="152.17" cy="475.43" r="2" fill="none"/>
    <circle id="ap-hem-right" cx="246.87" cy="431.21" r="2" fill="none"/>
  </g>
</svg>