<?xml version="1.0" encoding="UTF-8"?>
<svg xmlns="http://www.w3.org/2000/svg" viewBox="0 0 300 500">
  <g id="Layer_1" data-name="Layer 1">
    <path d="M209.53,10.54c1.22.03,3.96.57,3.73,2.26-1.3,9.27-1.06,18.59-2.14,27.89-.06,2.22-.83,5.51-.44,7.68,1.47,8.17,4.03,16.19,5.37,24.41-.32,5.25-.53,3.58.57,6.97-.89,4.84-2.23,10.07-3.29,14.95-2.35,10.35-3.73,20.77-4.06,31.38-.29,10.08,2.21,20.06,4.6,29.78,3.34,13.56,6.12,27.03,7.81,40.9.5,4.08.8,8.21,1.49,12.27.23,2.35-.59,3.25.18,6.15-.1,21.64-1.16,43.11-1.28,64.66-.19,39.35.99,78.69,3.56,117.95,1.35,23.39,2.7,49.25,5.69,72.33,1.66,1.32,3.04,2.32,3.36,4.51-.57,2.09-2.01,2.22-4.01,2.37-5.58.45-10.92,1.84-16.39,3.04-18.09,3.97-36.57,10.28-55.28,9.31-9.83-.69-23.7-3.85-33.35-5.96-5.49-1.19-10.96-2.44-16.42-3.75-5.1-1.22-13.58-2.75-13.84-2.71-.37-.64-1.06.14-1.06-3.13.92-2.21,0,0,1.4-3.26.12-2.39.52-5.48.78-7.92.62-4.09.94-9.32,1.22-13.5,3.35-51.22,6.74-102.7,5.9-154.04-.43-26.08-2.42-55.3-1.8-81.27-.29-.26,0,0,.52-4.23,2.86-25.02,6.07-44.71,13.71-69,1.56-4.55,1.03-1.91.65-7.4-1.39-9.45-1.97-19.38-3.54-28.8-1.41-8.13-3.2-16.38-5.7-24.24-.86-2.71.22-5.06.77-7.81.81-4.01,1.76-7.99,2.75-11.96.96-3.84,2.27-7.69,2.88-11.6.23-1.71-.75-8.02-.94-10.04-.31-3.48-.7-7.05-.85-10.53-.23-5.07-.89-9.89-1.71-14.89-.19-1.15.8-2.25,1.98-2.4,4.77-.62,3.37,3.8,3.93,6.75,1.04,5.92,2.73,12.12,3.27,18.11,8.06,3.35,18.6,14.27,26.89,18.7,3.47,1.85,8.72,5.7,12.77,5.71,12.77.04,24.38-12.32,34.89-18.67,3.28-1.98,6.34-4.84,9.84-5.51,1.69-6.33,2.79-13.45,4-19.92.38-2.01-.02-.82,1.64-5.53ZM104.16,209.6c1.15,1.07,3.14,4.68,3.05,6.37-.06.45-3.35-4.88-3.44-4.45-1.21.48-1.26,3.57-.75,5.92-.3,5.25,2.09,76.23,2.26,86.54.21,12.15.07,24.3-.41,36.44.86,1.65,1.77,3.46,2.73,5.06l-.62.48-2.19-3.72c.04,8.37-.56,17.76-.9,26.21-.66,17.08-1.52,34.16-2.58,51.22-.95,15.23-1.62,36.15-3.83,50.98,2.12.65,4.3,1.22,6.46,1.74,14.42,3.47,28.97,7.45,43.62,9.77v.92c-15.45-2.66-30.68-6.67-45.9-10.4-1.48-.36-4.07-1.13-5.38-.27-.45,1.03-.63,2.54.5,2.88.69.21,7.33,1.16,8.88,1.48,19.14,3.97,38.46,10.01,58.05,10.81,1.56.06,7.28-.45,8.55-.62,4.59-.6,32.22-5.45,35-7.67l.13.02c1.74.54,18.8-4.19,22-4.36,1.91-.05.86.4,2.96.12l.45-.48c.47-2-1.88-2.62-3.41-2.97l-.76-.39c.55-.69.75-.72.66-1.71-.34-4.12-.84-8.43-1.2-12.54-.75-8.9-1.43-17.81-2.03-26.72-1.95-28.23-3.4-56.48-4.36-84.76-.64-14.79-1.04-29.59-1.22-44.39-.15-28.63,1.43-57.28,1.17-85.64-1.13-1.46-.99-1.47-1.63-3.23-.83-2.26-3-3.79-4.86-5.29l.49-.73c1.27,1.35,4.3,3.63,5.8,4.65-1.28-14.93-3.54-29.76-6.76-44.39-2.42-11.01-5.94-22.04-6.89-33.24-.78-9.23.33-16.79,1.41-25.74h-.34s-.72-.23-.72-.23c2.52-3.92,5.12-21.46,6.15-26.74.06-.29-.82-.63-1.07-.76-5.36,2.63-9.92,6.74-15.59,9.24-22.14,9.75-47.26,8.69-69.72.75,1.36,1.48,3.06,3.08,4.5,4.51l-.76.37c-.7-.69-4.53-4.44-5.08-4.79-2.71-1.71-14.64-11.84-17.36-11.82-.98.42.25,2.29.48,4.36.47,5,3.72,14.38,6.03,18.79l-1.08.35c0,2.51.98,6.92,1.24,9.59.66,6.8,2.28,15.46,2.51,22.2-.05,5.29-.12,4.23-.1,7.29.39.85.99,2.3,1.42,3.07l-.49.59-1.55-2.81c-7.11,20.14-11.46,47.01-13.5,68.13ZM205.68,37.19c1.24,2.12,1.99,3.91,2.52,6.33l.3.81c1.1-1.71,4.91-32.82,3.2-32.11l-1.19-.32c-2.1,2.2-3.55,19.89-4.83,25.29ZM119.14,38.46c-2.7,10.19-4.18,9.96.14,20.55l-.3.12c-1.14-1.52-2.65-5.52-3.44-7.46-1.96,6.14-5.65,17.57-5.4,23.68,4.02,4.11,9.58,9.96,15,12.2,24.86,10.28,56.62,11.26,79.85-3.76,2.03-1.31,3.72-2.65,5.51-4.22,1.73-1.77,1.64-3.88,3.71-5.86-.41-3.27-1.06-6.24-1.74-9.46-.9-3.82-2.09-9.33-3.44-12.9-.51,1.94-3.37,13.71-4.41,14.33-.07-.78.83-3.63,1.06-4.59,2.58-10.55,3.14-12.79-1.18-22.48-23.09,38.15-57.23,49.05-82.37,5.82-.8-1.38-2.32-5.16-2.99-5.97ZM116.12,42.89c.36-1.22,1.75-5.78,1.64-6.6-.31-2.4-1.94-17.71-3.45-23.4-.42-1.57-2.2.29-2.54,0,.21,6.41,2.12,16.21,2.85,22.58.27,2.36.37,5.78.89,8.01l.24.12.37-.71ZM123.57,44.71c6.33,10.76,16.2,22.41,28.8,25.76,9.24,2.57,18.86-.76,26.83-5.51,8.17-4.87,14.97-12.79,20.37-20.52,1.13-1.62,3.56-5.15,3.78-7-9.04,4.83-16.97,11.14-25.58,16.62-5.9,3.75-14.13,9.45-21.38,6.72-13.22-4.98-24.1-16.17-36.02-23.34.81,3.32,1.39,4.36,3.21,7.27Z"/>
    <path d="M198.25,58.52l.27.41c-8.64,8.31-16.71,14.41-28.53,17.53-16.02,4.22-27.88-.55-41.54-8.62l-.65-.66c.34-.06,4.54,2.14,5.27,2.54,25.13,13.89,44.44,6.99,65.19-11.2Z"/>
    <path d="M124.39,371.9c-1.15-.11,2.66,6.29,14.08,19.64,15.86,22.17,31.11,43.27,49.66,63.24,4.94,5.32,14.33,13.88,19.81,18.58-.67-8.52.56-27.13.86-36.45.27-11.06.67-22.12,1.18-33.17.23-6.28.3-13.61.9-19.78-1.63-2.08-3.81-4.55-5.3-6.57.23,0,.85-.04,1.02.04,1.39,1.71,2.85,3.47,4.2,5.2.19-8.4,1.26-18.13,2-26.6,1.07-13.54,2.31-27.06,3.7-40.57.42-4.13,1.23-8.33,1.55-12.43l.36-.26c-.24,8.3-1.67,18.8-2.47,27.24l-3.92,45.82c-.57,7.23-.63,16.17-.91,23.6l-1.71,44.8c-.2,5.67-1.28,26.5-.12,30.35,2.54,1.51,16.76-3.88,19.32-3.38l.76.39c-6.89,1.66-23.2,5.48-24.38,5.95"/>
    <path d="M125.42,375.12c-.27-.98-3.41-5.27-4.21-6.41l.67-.4,3.65,5.23"/>
    <path d="M205.35,477.49c-6.4,1.17-12.64,3.01-19.04,4.23-12.6,2.39-26.01,2.56-38.76,1.35v-.92c14.69,1.3,25.77,1.32,40.6-1.67,7.24-1.46,13.47-3.35,20.53-5.03-9.84-10.14-18.71-18.71-28.29-29.5-19.68-22.16-36.19-44.8-53.35-68.86"/>
    <path d="M106.67,213.81c6.15,12.78,11.87,25.33,18.49,37.96,9.52,17.81,19.64,35.3,30.33,52.44,15.51,25.44,32.58,49.9,51.11,73.23-.17-.08-.78-.04-1.02-.04-.89-.64-7.12-9.16-8.35-10.77-31.4-41.36-58.76-85.63-81.73-132.2-2.21-4.54-4.39-9.09-6.54-13.65-.66-1.4-2.14-4.17-2.5-5.48.09-.43.15-1.05.2-1.5Z"/>
    <path d="M115.71,101.17c3.42,5.54,6.08,10.26,9.94,15.56,7.55,10.38,15.75,19.15,24.6,28.32,11.07,11.47,22.51,22.58,34.29,33.32,9.62,8.86,20.99,19.56,31.1,27.83l-.49.73c-9.3-7.62-19.35-17.14-28.22-25.26-17.78-16.27-36.03-33.7-51.9-51.81-4.48-5.04-8.62-10.36-12.4-15.95-1.26-1.89-7.13-11.53-8-12.39l1.08-.35Z"/>
    <path d="M119.7,143.68c2.04,2.93,3.92,6.09,5.83,9.12,8.81,13.94,18.52,27.02,28.51,40.13,5.23,6.81,10.59,13.5,16.1,20.09,3.07,3.71,7.66,8.96,10.35,12.89-2.83-2.16-9.08-10.06-11.59-13.1-13.35-16-25.93-32.62-37.71-49.81-3.84-5.68-8.59-12.76-11.97-18.72l.49-.59Z"/>
    <path d="M208.85,107.5c-.46.61-.87,1.43-1.31,2.08-5.01,7.36-11.67,15.29-19.26,20.05l-.07-.15c3.31-3.25,6.63-5.89,9.95-9.31,4.33-4.47,6.41-8.14,9.97-12.91l.72.24Z"/>
    <path d="M107.59,345.47c2.44,3.75,4.77,7.73,7.16,11.54,2.25,3.58,5.1,7.65,7.12,11.3l-.67.4c-4.89-7.49-9.64-15.08-14.23-22.76l.62-.48Z"/>
    <path d="M132.4,94.26c1.44,1.11,4.86,4.44,6.41,5.89,3.86,3.63,8.84,7.71,12.32,11.57-1.19-.16-17.56-15.28-19.49-17.09l.76-.37Z"/>
  </g>
  <g id="ap-">
    <circle id="ap-strap-left" cx="112.31" cy="12.9" r="2" fill="none"/>
    <circle id="ap-strap-right" cx="210.5" cy="11.91" r="2" fill="none"/>
    <circle id="ap-neck-right" cx="184.31" cy="49.45" r="2" fill="none"/>
    <circle id="ap-armhole-right" cx="210.28" cy="47.45" r="2" fill="none"/>
    <circle id="ap-waist-right" cx="208.85" cy="129.96" r="2" fill="none"/>
    <circle id="ap-hip-right" cx="222.42" cy="211.81" r="2" fill="none"/>
    <circle id="ap-hem-right" cx="218.71" cy="478.17" r="2" fill="none"/>
    <circle id="ap-hem-left" cx="123.88" cy="479.09" r="2" fill="none"/>
    <circle id="ap-hip-left" cx="103.79" cy="213.81" r="2" fill="none"/>
    <circle id="ap-waist-left" cx="117.39" cy="137.86" r="2" fill="none"/>
    <circle id="ap-underarm-left" cx="115.39" cy="49.45" r="2" fill="none"/>
    <circle id="ap-neck-left" cx="136.47" cy="47.45" r="2" fill="none"/>
    <circle id="ap-hem-center" cx="164.96" cy="487.46" r="2" fill="none"/>
    <circle id="ap-apex-left" cx="112.31" cy="78.03" r="2" fill="none"/>
    <circle id="ap-apex-right" cx="212.5" cy="78.03" r="2" fill="none"/>
  </g>
</svg>