<?xml version="1.0" encoding="UTF-8"?>
<svg xmlns="http://www.w3.org/2000/svg" viewBox="0 0 300 500">
  <g id="Layer_1" data-name="Layer 1">
    <path d="M140.2,477.31c-29.58,9.41-65.77,8.47-95.11-2.11-.35-.13-.64-.41-.88-.68-.19-5.08.44-12.82.75-18.14l1.91-31.34,5.84-95.14,9.06-144.45c.97-16.28,2.06-32.55,3.25-48.82.59-8.96.94-18.45,1.89-27.35,3.14-29.52,11.45-58.09,16.74-87.21.15-.83.54-2.13,1.09-2.77.94-.57,1.59-.61,2.66-.62,8.68-.1,17.4.05,26.07.02h73.28s17.47-.02,17.47-.02c3.4-.02,7.52-.23,10.82.21,3.14.41,3.27,7.94,3.82,10.67,4.25,20.83,9.53,41.47,13.09,62.44.83,4.89,1.71,9.83,2.39,14.74.75,6.85,1.14,14.25,1.62,21.16.92,12.15,1.76,24.3,2.51,36.46l8.68,136,7.13,112.89,2.37,41.2c.3,5.8,1.01,14.57.94,20.14-2.88,1.85-9.55,3.72-12.89,4.49-26.12,6.06-58.11,7.19-83.53-1.72-1.16-72.86-3-145.7-5.51-218.52-.62-25.07-1.52-50.13-2.69-75.18-.32-7.01-.07-19.96-.94-26.34.12-1.61-.06-5.3-.09-7.06-.32,2.13-.75,4.56-.64,6.67-.89,7.54-1.14,18.51-1.52,26.28l-2.08,43.06c-2.44,56.65-4.3,113.32-5.56,170.02l-1.35,54.96c-.18,7.71,0,18.54-.61,26.06ZM209.98,37.47c5.88,13.76,12,31.01,16.75,45.26.36,1.02.95,3.1,1.65,3.76l.41-.31c-.4-3.51-10.21-48.86-10.84-49.5-.47-.03-.79-.08-1.25.04-1.91.23-4.88.67-6.72.75ZM74.3,76.17c-.38,2.58-1.39,6.39-1.48,8.87l.33-.56h.3c-.04.48-.06.95-.13,1.42.41-.36,3.19-8.76,3.4-9.73,1.26-2.67,3.74-9.79,4.92-12.95,1.84-4.94,5.86-13.17,7.2-17.74,1.21-2.48,2.38-5.29,3.5-7.84l-4.79-.56-4.45-.57c-2.57,13.12-6.13,26.47-8.79,39.66Z" fill="var(--black)"/>
    <path d="M93.36,37.73c6.48,1.08,14.55.74,21.16,1.5l.54.05c1.43-.22,24.76.45,24.91.52l.53-.24,12.5.03c-.12,14.93-.33,29.86-.63,44.79-.15,7.66-.2,16.05-.6,23.67l-.05.37c.2,3.01-.27,9.77-.42,13-.52,10.09-1.1,20.17-1.76,30.25-1.38,24.69-2.62,49.39-3.74,74.09-2.28,52.52-4.01,105.05-5.21,157.6l-1.53,63.07c-.28,9.8-.49,19.6-.63,29.4-13.01,5.04-31.23,6.1-45.15,5.98-1.33-.01-5.8.03-6.8-.44-.03-.88-.04-1.57,0-2.45l-.53.65c-.04.76-.06.87-.24,1.61-1.38.58-5.07-.02-6.63-.19-11.58-1.2-22.35-3.57-33.28-7.55.66-6.48.92-14.5,1.32-21.1l3.09-53.05,12.41-197.7,4.14-62.46c.65-9.75,1.37-27.74,3.24-36.56,4.65-21.99,15.53-44.06,23.36-64.85Z" fill="var(--off-white)"/>
    <path d="M93.36,37.73c6.48,1.08,14.55.74,21.16,1.5l.54.05c-.97,10.17-2.5,20.79-3.61,31.02-1.84,17.53-3.44,35.09-4.82,52.67-1.64,22.55-3.1,45.11-4.38,67.68l-7.66,137.73-5.14,94.43c-.95,18.32-1.54,37.92-2.97,56.12l-.53.65c-.04.76-.06.87-.24,1.61-1.38.58-5.07-.02-6.63-.19-11.58-1.2-22.35-3.57-33.28-7.55.66-6.48.92-14.5,1.32-21.1l3.09-53.05,12.41-197.7,4.14-62.46c.65-9.75,1.37-27.74,3.24-36.56,4.65-21.99,15.53-44.06,23.36-64.85Z" fill="var(--off-white)"/>
    <path d="M114.52,39.23l.54.05c-.97,10.17-2.5,20.79-3.61,31.02-1.84,17.53-3.44,35.09-4.82,52.67-1.64,22.55-3.1,45.11-4.38,67.68l-7.66,137.73-5.14,94.43c-.95,18.32-1.54,37.92-2.97,56.12l-.53.65c-.1-3.15.57-11.56.78-14.89.48-8.06.9-16.13,1.27-24.2l5.57-103.61,7.83-141.97c1.8-34.29,4.23-68.54,7.29-102.73,1.68-17.68,3.62-35.33,5.82-52.95Z" fill="var(--black)"/>
    <path d="M140.5,39.56l12.5.03c-.12,14.93-.33,29.86-.63,44.79-.15,7.66-.2,16.05-.6,23.67-5.78-1.88-8.64-4.16-10.01-10.37-1.12-5.04-.97-10.21-1.06-15.35l-.23-23.34c.23-3.14.09-9.16,0-12.39l.03-7.05Z" fill="var(--off-white)"/>
    <path d="M139.97,39.8l.53-.24-.03,7.05c.08,3.23.23,9.25,0,12.39l.23,23.34c.09,5.14-.06,10.3,1.06,15.35,1.37,6.21,4.23,8.49,10.01,10.37l-.05.37c-12.1-1.2-11.39-16.38-11.58-25.12-.32-14.5-.2-29-.17-43.5Z" fill="var(--black)"/>
    <path d="M140.47,58.99c-.47-1.97-.4-10.33,0-12.39.08,3.23.23,9.25,0,12.39Z" fill="var(--muted)"/>
    <path d="M208.72,37.7c1.08,1.64,4.33,10.55,5.22,12.9,3.79,9.8,7.39,19.66,10.8,29.59,2.55,7.37,6.03,17.95,7.4,25.62.87,4.87,1.3,13.96,1.67,19.17l2.26,32.23,6.72,104.85,9.18,144.35,2.6,44.58c.39,7.14,1.06,15.56,1.12,22.61-13.58,5.09-24.92,6.9-39.39,7.91l-.23-.09c-16.8,1.54-37.14-.07-53.11-5.41-.63-17.61-.66-36.06-1.03-53.73l-2.76-116.71-3.82-113.18-1.59-41.1c-.19-4.68-.55-9.39-.7-14.06-.39-12.44.48-25.08.74-37.53l.95-60.09c7.04.03,14.08-.06,21.11-.27,2.14-.05,10.55-.38,12.17-.07l.37.04c1.6-.35,3.23-.41,4.87-.51,5.15-.32,10.32-.51,15.45-1.08Z" fill="var(--off-white)"/>
    <path d="M208.72,37.7c1.08,1.64,4.33,10.55,5.22,12.9,3.79,9.8,7.39,19.66,10.8,29.59,2.55,7.37,6.03,17.95,7.4,25.62.87,4.87,1.3,13.96,1.67,19.17l2.26,32.23,6.72,104.85,9.18,144.35,2.6,44.58c.39,7.14,1.06,15.56,1.12,22.61-13.58,5.09-24.92,6.9-39.39,7.91l-.23-.09c-.58-1.29-1.66-29.02-1.82-32.14l-2.62-49.52-12.47-219.72c-1.82-31.86-4.07-63.7-6.74-95.5-.84-9.77-1.74-19.54-2.72-29.3-.49-5.01-.94-11.06-1.67-15.98l.37.04c1.6-.35,3.23-.41,4.87-.51,5.15-.32,10.32-.51,15.45-1.08Z" fill="var(--off-white)"/>
    <path d="M188.4,39.3c.69,1.75,1.43,11.33,1.66,13.66,1.25,12.24,2.37,24.5,3.38,36.76,6.64,91.27,12.22,182.61,16.72,274.01l4.48,81.93,1.19,23.54c.14,2.77.65,9.87.46,12.3l-.23-.09c-.58-1.29-1.66-29.02-1.82-32.14l-2.62-49.52-12.47-219.72c-1.82-31.86-4.07-63.7-6.74-95.5-.84-9.77-1.74-19.54-2.72-29.3-.49-5.01-.94-11.06-1.67-15.98l.37.04Z" fill="var(--black)"/>
    <path d="M86.03,20.72l66.88.03c0,2.09-.09,4.62.22,6.66l.13.52c-1.29.79-9.62.04-12.05.52-.65.72-.52.98-.73,2.03,2.96.41,10.79-.27,12.7.63v.49c-.11,2.37-.08,4.69-.17,7.02-2.64-.03-10.2-.28-12.53.01l-.49.02c-3.96-.6-15.72-.54-20.34-.73-12.17-.41-24.31-1.35-36.4-2.82,1.08-4.66,1.9-9.64,2.76-14.38Z" fill="var(--off-white)"/>
    <path d="M140.52,32.59l.12-.5c.98-.67,10.5-.42,12.55-.49-.11,2.37-.07,4.69-.16,7.02-2.64-.03-10.2-.28-12.53.01l-.49.02c-.09-1.78-.02-3.85-.01-5.65l.53-.41Z" fill="var(--off-white)"/>
    <path d="M139.99,33l.53-.41c.01,2.02.04,4.02-.03,6.04l-.49.02c-.09-1.78-.02-3.85-.01-5.65Z" fill="var(--black)"/>
    <path d="M153.13,27.42l.13.52c-1.29.79-9.62.04-12.05.52-.65.72-.52.98-.73,2.03,2.96.41,10.79-.27,12.7.63v.49c-2.05.07-11.57-.19-12.55.49l-.12.5-.53.41-.04-5.53,13.18-.05Z" fill="var(--black)"/>
    <path d="M154.69,20.73c19.87.08,40.68-.34,60.45.04.94,3.64,1.79,10.13,2.68,14.34l-2.57.31c-17.75,2.05-35.27,2.69-53.12,2.96-2.42.04-4.96.17-7.36,0,.04-5.88,0-11.76-.08-17.65Z" fill="var(--off-white)"/>
    <path d="M216.7,36.72c.46-.12.78-.07,1.25-.04.64.64,10.44,45.99,10.84,49.5l-.41.31c-.7-.65-1.29-2.73-1.65-3.76-4.76-14.25-10.87-31.5-16.75-45.26,1.84-.08,4.81-.52,6.72-.75Z" fill="var(--off-white)" fill-opacity="0.74"/>
    <path d="M83.09,36.51l4.45.57c2.85,2.07,1.07,5.6,1.29,8.4-1.34,4.58-5.36,12.8-7.2,17.74-1.18,3.16-3.66,10.28-4.92,12.95-.73.4-.7.74-1.11,1.63-.26-.98-.12-1.15-.81-1.6l-.51-.03c2.67-13.19,6.22-26.54,8.79-39.66Z" fill="var(--off-white)" fill-opacity="0.73"/>
    <path d="M141.21,28.45c1.82.08,10.98-.07,11.78.36.07.86.18.66-.16,1.33-2.82.62-8.83-.05-12.35.33.2-1.05.08-1.31.73-2.03Z" fill="var(--off-white)"/>
    <path d="M74.3,76.17l.51.03c.69.45.54.62.81,1.6.41-.88.38-1.23,1.11-1.63-.21.96-2.99,9.36-3.4,9.73.07-.47.09-.95.13-1.42h-.3s-.33.56-.33.56c.09-2.48,1.1-6.29,1.48-8.87Z" fill="var(--off-white)" fill-opacity="0.79"/>
    <path d="M87.54,37.08l4.79.56c-1.11,2.55-2.28,5.37-3.5,7.84-.22-2.8,1.56-6.33-1.29-8.4Z" fill="var(--off-white)" fill-opacity="0.83"/>
    <path d="M151.95,150.26c.03,1.76.21,5.46.09,7.06-.16.71-.31.62-.3,1.42-.16-.33-.04-1.1,0-1.55l-.43-.26c-.12-2.12.31-4.55.64-6.67Z" fill="var(--black)" fill-opacity="0.05"/>
  </g>
  <g id="ap-">
    <circle id="ap-wb-left" cx="86.32" cy="20.59" r="2" fill="none"/>
    <circle id="ap-wb-right" cx="214.33" cy="20.61" r="2" fill="none"/>
    <circle id="ap-waist-right" cx="219.39" cy="35.13" r="2" fill="none"/>
    <circle id="ap-waist-left" cx="82.57" cy="35.13" r="2" fill="none"/>
    <circle id="ap-crotch" cx="150.89" cy="138.05" r="2" fill="none"/>
    <circle id="ap-hip-left" cx="67.76" cy="106.05" r="2" fill="none"/>
    <circle id="ap-hip-right" cx="231.97" cy="106.05" r="2" fill="none"/>
    <circle id="ap-knee-right" cx="207.4" cy="314.69" r="2" fill="none"/>
    <circle id="ap-knee-left" cx="95.48" cy="313.29" r="2" fill="none"/>
    <circle id="ap-hem-right-inner" cx="162.3" cy="476.3" r="2" fill="none"/>
    <circle id="ap-hem-right-outer" cx="255.68" cy="472.31" r="2" fill="none"/>
    <circle id="ap-hem-left-outer" cx="44.21" cy="474.52" r="2" fill="none"/>
    <circle id="ap-hem-left-inner" cx="138.76" cy="476.3" r="2" fill="none"/>
  </g>
</svg>