<svg id="Layer_1" xmlns="http://www.w3.org/2000/svg" version="1.1" viewBox="0 0 254.3 792">
  <!-- Generator: Adobe Illustrator 30.2.1, SVG Export Plug-In . SVG Version: 2.1.1 Build 1)  -->
  <path id="Pant_Detail" d="M177.32,307.84c-6.65-.27-13.31-.54-19.96-.82l-1.92,18.65-2.89,12.95-3.31,14c-1.44,1.83-3.43,4.36-5.19,5.73l-7.41,5.76c-2.08,1.61-5.71,3.95-8.26,2.45-2.43-1.44-2.95-2.28-4.63-4.42,0,0-.76-7.08-.48-6.61l-1.48,7.35c1.96,2.33,2.73,3.3,2.73,3.3l2.14,1.84c2.25,1.04,3.69,1.44,3.69,1.44,4.32-.85,7.87-3.62,11.22-6.05,2.62-1.9,4.91-3.58,6.95-6.18,1.14-1.46,2.36-2.95,2.77-4.79l2.9-12.97,2.69-13.14c.48-2.37.69-7.38,1.15-11.02.44-3.43.21-7.96.21-7.96l.48.19,15.9.58-1.54,3.57-.35,11.15c.08,2.05-3.7,14.35-4.19,16.72-1.13,5.48-2.76,10.97-3.26,16.59l-1.75,19.56c-1.07,11.9-7.03,28.56-7.12,35.51l-.14,11.1-4.68,45.03c-1,9.63-2.64,18.71-4.57,28.11l-4.67,22.78-9.7,44.46-4.09,19.71-5.18,19.15-8.7,32.28-1.02,14.91-.36,13.5c-3.04,2.99-27.16-19.29-27.71-19.14s-7.18-6.2-8.5-5.6c-2.22,1-1.78,5.61-1.83,6.29,0,0,10.95,16.22,25.48,21.73,4.27,1.62,23.45,8.99,39.72,6.57l11.31.48c1.15-2.02,2.22-7.02,2.22-7.02-.19-1.42.28-2.58-.27-2.76-1.49-.47-15.65,2.78-15.65,2.78l-17.09-1.07c-3.32-1.31-4.65-.21-6.24-1.51-1.24-1.01.31-3.84.48-7.43.44-9.32.92-14.75,1.58-20.26.39-3.21,6.81-26.08,8.5-32.64,3.14-12.22,2.83-11.08,5.26-20.23,2.86-10.77,16.31-75.06,18.41-86.43,1.34-7.3,2.12-12.2,2.39-13.94.95-6.06,1.54-10.62,2.11-15.07,3.33-25.96,4.98-39.05,4.65-44.35-.15-2.37-.49-6.14,0-11.4.62-6.7,2.22-12,3.38-15.24,1.27-6.79,3.8-20.38,3.8-20.38,0-8.12.75-14.57,1.41-18.87.72-4.7,1.12-5.39,3.24-16.47,2.33-12.2,4.45-14.77,4.48-17.01.07-6.22-.11-7.55.49-10.68l1.35-2.43c2.1,2.37,4.21,3.37,5.45,3.83,1.91.7,3.66.76,7.17.86,3.05.09,5.07-.09,5.07-.16,0-.12-5.55.77-11.27-1.67-2.91-1.24-4.75-2.87-4.64-3.07.17-.31,4.52,3.04,10.36,2.86,3.23-.1,6.02-1.26,5.99-1.4-.03-.13-2.18.48-4.85.59-6.27.27-11.38-2.3-11.27-2.75.08-.35,3.33.74,8.38-.15,0,0,1.65-.29,3.11-.77,6.89-2.25,11.47-10.74,10.79-9.6-.81,1.35-3.1,3.6-6.37,6.15-3.57,2.78-8.01,3.6-8.68,2.6-.11-.16-8.2.51-8.15.37l-.04-.02h0Z" style="fill: none; stroke: #000; stroke-miterlimit: 10;"/>
  <path id="Pants" d="M120.52,374.02c-.15-.8-.5-4.53-.64-5.34-1.29-7.56-.42-14.7.91-22.22.94-5.3,1.78-10.34,3.31-15.48l2.32-7.74c3.66-3.4,8.96-8.13,11.99-9.85.44-.25.66-.37.67-.36.1.14-11.38,11.52-12.65,10.21-.26-.27.98-4.84,2.47-8.01,1.94-4.12,2.22-4.83,2.63-4.79,1.6.15,5.12-.03,8.36-.64,3.45-.66,3.47-.55,14.34-3.11,15.26-3.6,21.89-3.46,24.12-1.28.32.31,1.33,1.43,3.04,1.96,1.36.42,2.58.29,3.74.15,1.88-.23,3.34-.74,4.52-1.22,3.16-1.27,5.46-1.94,7.14-3.85,2.6-2.95,5.34-8.48,5.26-7.63-.32,3.19.23,13.11.23,13.11h0c-1.76-1.93-2.5-4.33-2.51-4.23-.34,1.75.53,1.37,1.69,2.89,2.04,2.69.58-3.73.19-6.58-.32-2.33.93-.24-1.81-5.86-4.38-8.97-11.52-15.34-10.17-16.85.29-.32.77-.21,2.5.09,8.61,1.47,10.02.89,11.17,2.27,1.09,1.31.56,2.71-.25,8.08-1.12,7.43-1.69,11.15-1.34,15.52.25,3.14,1.01,7.34,1.75,11.5.18.99.35,1.91.6,3.44.73,4.45,1.09,6.73,1.02,9.33-.06,2.23-.42,3.87-.68,5.09-2.22,10.28-4.61,22.09-5.02,24.14-2.36,11.9-.24,10.22-2.68,21.98-1.44,6.96-2.61,9.6-4.2,18.81-1.17,6.81-1.5,10.95-1.6,12.33-.51,7.14.16,8.18,0,14.9-.31,12.76-3.3,32.96-3.38,34.52-.03.59,0,1.16,0,1.16,0,.47.05.81.05.86.59,6.27-1.74,16.28-1.74,16.28-1.41,6.05-3.38,11.75-3.33,11.77h0c.76-1.3,1.14-1.94,1.92-6.87h0c.4,3.15.35,5.78.2,7.71-.14,1.83-.38,3.25-.52,3.98-.53,2.8-1.27,4.89-1.81,6.22-.54,1.31-1.06,2.3-1.78,3.28-.47.64-.65.76-.93,1.13-2.02,2.63-.68,6.73-1.25,10.7-.09.63-.21,1.32-.21,1.32-.27,1.56-.55,2.68-.59,2.87-.89,3.78-6.21,40.84-6.55,42.82-.06.32-.11.62-.11.62-.19,1.03-.35,1.79-.38,1.94-.27,1.33-1.56,8.13-2.32,12,0,0-1.07,5.45-4.53,19.9-.1.4-.32,1.33-.73,2.53,0,0-.21.63-.46,1.26-.93,2.37-1.96,3.45-2.69,5.42-.8,2.17-.59,3.64-1.2,6.86-.15.82-.23,1.23-.3,1.55-.09.42-.18.79-.28,1.36,0,0-.06.36-.11.74-.36,2.64-.22,6.17-.22,6.17.15,3.73-.11,6.82-.34,9.5-.09,1-.18,2.14-.39,3.63-.57,4.09-1.43,7.05-1.61,7.69-2.45,8.9-1.5,14.24-2.22,27.56-.13,2.43-5.84,1.49-13.68,1.45-.52,0-2.52-.02-5.28.03-2.22.04-3.65.11-4.22.12-2.33.08-5.29-.13-19.62-3.43-.58-.13-1.73-.4-3.22-.89-.68-.22-1.72-.59-3.16-1.2-6.22-2.67-10.76-5.52-10.76-5.52,0,0-4.11-2.58-8.29-6.1-1.31-1.1-2.39-2.17-2.39-2.17-.5-.49-.86-.87-1.04-1.07-5.29-5.64-6.26-6.82-6.61-8.66-.29-1.52-.02-2.74.1-3.28.15-.63.76-3.24,2.24-3.59,1.38-.33,2.08,1.65,3.22,1.53,2.39-.25,3.22-9.37,5.42-21.04.26-1.37.7-3.62,1.64-6.48.76-2.31,1.28-3.26,2.07-5.34.37-.97,1.22-3.29,2.44-8.38,3-12.59,5.45-30.52,5.84-34.03.04-.33.17-1.57.45-3.23.1-.58.26-1.52.51-2.69.63-2.96,1.34-5.16,1.68-6.47.39-1.48.54-2.65.78-8.11.52-12.23.07-13.76,1.23-17.85.55-1.92.54-1.22,2.19-5.96,1.72-4.97,2.6-8.26,3.35-10.84,2.83-9.73,3.72-8.83,6.03-16.97,2.4-8.46,2.98-14.88,5.22-15.02.35-.02.47.12,1.04.37,4.41,1.93,11.33-.44,12.29-3.57.08-.26.14-.48.03-.66-.69-1.04-7.21.64-11.73,2.88-.42.21-1.11.56-1.63.28-1.22-.67-.43-4.26,0-6.26,1.18-5.64,1.5-11.43,2.67-17.07,2.42-11.64,1.79-9.63,2.56-12.72,3.84-15.29,8.23-20,5.89-27.44-.64-2.03-1.26-2.61-1.78-5.15-1.09-5.35.78-7.17-.4-12.75-.47-2.21-1.14-3.75-.57-4.13.9-.6,3.92,2.3,3.91,2.32-.02.02-2.93-1.59-5.05-4.42-.62-.83-1.12-1.69-2.85-6.37-1.76-4.77-2.9-7.86-2.55-8.02.19-.09.75.76,3.8,5.67,3.57,5.73,3.61,5.88,4.06,6.2,3.87,2.78,10.78-.56,15.76-2.96,2.95-1.42,7.15-3.82,11.6-7.81" style="fill: none; stroke: #000; stroke-miterlimit: 10;"/>
  <path id="Shirt" d="M141.77,200.62c-.96-1.66,2.82,4.73,4.66,7.97.04.07.97,2.28,2.26,5.28.87,2.01,2.39.6,4.8,1.8,4.37,2.18,7.19,5.23,10.72,9.75,2.88,3.69,5.57,7.52,9.41,13.57,4.33,6.83,6.68,10.57,9.29,16.2.86,1.84,1.98,5.21,4.22,11.94.7,2.1,1.18,8.86.54,8.87-.52.01.42.87-.65.9-.53.01.19.55.15.59-.46.52,8.67,11.51,9.91,16.82.59,2.53-1.55,6.81-7.69,11.38l-11.39,1.93c2.76-1.43-8.82-2.44-8.82-2.44l-13.25.16-8.01,1.8c-2.85.49-11.52,2.52-14.43,2.61-.13-.22-5.01.32-4.88.31,0,0-2.85-.32-2.9-1.65-1.94-.22-3.71.77-5.82.95l-6.51-.6s-5.19.9-7.21.85c-13.7-.3-14.51,2.87-24.6,7.75,0,0-4.53,3.03-4.58,2.79l-1.11-12.4c-.52-2.38-1.84-3.12-2.11-5.36.06.31-.36-9.64-1.94-14.08-1.36-3.72-1.76-7.86-3.36-11.46l-4.28-9.59c-1.62-3.62-3.56-7.1-4.89-10.84l-4.9-13.83c-5.83-16.47-8.1-25.44-9.67-43-.73-8.15,1.03-18.26,4.08-25.49l2.82-5.74c1.18-2.79,6.6-13.1,6.6-13.1,1.21-1.97,3.43-10.38,11.71-9.04,0,0-.74,1.38-.11,1.47,4.68.66,9.83,2.88,9.83,2.88,6.81,2.38,11.36,4.08,13.27,5.42,1.45.85,7.2,5.92,7.68,6.25,2.15,1.49,1.85,6.19,3.78,8.28,1.11,1.19,2.6,1.32,3.65,1.52,3.06.58,5.46,2.38,14.42,11.18,13.25,13.02,18.94,13.08,19.06,18.26.19,7.88-10.74,18.21-18.79,19.61-5.55.97-10.44.31-10.38,0,.22-.98,6.56,7.33,20.87.6,3.73-3.21,10.2-18.19,8.54-21.08" style="fill: none; stroke: #000; stroke-miterlimit: 10;"/>
  <path id="Arm" d="M199.4,298.15c-1.59,3.97-4.32,5.91-7.52,7.5-2.9,1.45-9.47,2.34-11.44,1.74-1.02-.31-1.45-2.84-2.45-4.28-1.79-2.58-4.07-4.8-3.36-5.47.7-.67,3.54-.02,5.51.05.13,0,.51.01.98-.11.24-.06-.12-1.28-.13-1.33-.02-.3-14.35.49-27.36,2.94s-13.36,2.51-22.47,5.71c-11.98,4.2-18.69,1.64-25.79,2.74-4.11.64-13.98-1.31-13.98-1.31-1.09.03-2.42-.49-6.41.65-.2.06-1.5.26-1.85.21-.12-.02-.8-.6-.71-.53l-.49-1.15c-1.67-3.21-1.89-5.48-3.15-8.91l-3.05-8.3-3.46-11.6c-3.54-6.16-4.83-19.18-8-25.64l-2.57-6.13-3.39-10.88-3.38-11.46c-1.45-4.9-2.26-9.79-2.11-14.91l-.02-12.1c.05-1.63.2-5.52.39-7.09.65-5.34,1.97-10.54,4.08-15.48,1.66-3.88,3.64-7.13,7.21-9.18,5.23-2.99,13.15-.04,15.97,3.78,12.86,17.43,10.06,26.21,10.71,45.6l.73,21.85c.45,13.41,4.57,26.14,7.73,39.24l-3.71.97c-.77-2.67-4.85,5.82-3.87,3.76l2.57-3.99,6.34-1.04c8.6-.05,18.46,1.48,26.89,2.26l23.04,1.5c10.44.96,17.83-2.14,27.92-2.16,2.18,0,5.26,2.16,6.25,4.61,2.1,5.19.63,8.07.13,5.63l-.16-7.2s.4.05.84.16c.15.04.6.16,1.66.91.05.04.87.61,1.38,1.08,1.32,1.22,3.88,3.09,4.76,4.78.53,1.01,1.78,2.77,3.48,5.45.89,1.41,1.57,1.08,2.63,3.18,1.23,2.42.09,2.43.15,2.77l-.56,1.23.04-.05h0Z" style="fill: none; stroke: #000; stroke-miterlimit: 10;"/>
  <path id="Face" d="M75.61,96.47c-.09-.27-.67-2.02-1.54-2.07-.16-.01-2.42,1.81-2.55,2.01-1.1,1.76-.5,8.08-.88,8.15-.03,0,.61,3.19.61,3.2,0,0,3.86,6.81,4.35,6.86,1.28.15,3.1.83,3.72-.05.08-.11.88-1.86,1-1.83.2.04.7-1.34.42-.94-.15.21-.42.94-.42.94,0,0-.92,1.27-1,1.83-.11.8-2.13-.55-2.97.85-.38.64-.13,4.49-.32,5.88-.35,2.57-.39,3.64-.58,5.25-.17,1.43-.68,5.78-1.98,9.99-2.04,6.58-2.49,7.23-3.54,9.71-.76,1.79,2.6,1.92,9.73,4.35,6.82,2.32,10.23,3.48,13.27,5.42,4.74,3.01,7.67,6.83,8.1,5.32.58-2.01,1.46-2.89,2.18-6.66.04-.23.6-3.3,1.21-4.94.04-.1.23-.7.61-1.9.31-.98.42-1.14.3-1.25-.63-.54-1.65-.85-2.68-1.27-3.02-1.23-6.72-4.84-16.17-8.67-1.12-.46-1.81-.61-2.54-1.5-.52-.64-1.75-1.35-1.71-2.18.2-4.2-.54-6.97-.7-10.36-.14-2.84-.44-7.4-.44-7.4-.38-.56.93,13.71,1.1,14.27.39,1.26.04,3.48.04,3.48-.56,1.34,1.71,2.18,1.71,2.18,1.06.94,2.17,1.25,2.54,1.5,5.61,3.84,10.76,5.02,12.69,6.7,1.07.93,2.6,1.56,4.35,2.31,1.3.56,1.76,1.24,2.7,1.33,6.03.63,9.5-1.16,10.75-2.34,1.65-1.55,2.78-2.47,5.96-7.81,2.38-3.98,7.31-10.22,7.3-14.64,0-2,.44-6.08.54-6.09.02,0,1.69-2.22,1.71-2.22l2.12-6.53c.57-2.11-4.6-9.7-4.6-10.21,0,0-1.7-9.25-2.18-11.94-.47-2.66-.95-4.79-1.3-6.94-.76-4.68-1.15-5.57-1.64-4.46-3.2,7.37-12.08,12.41-15.45,14.38-4.14,2.42-10.75,7.29-13.6,7.77l1.08-1.28,4.49-7.71,2.45-4.03-7.22,9.34c-8.9,6.41-12.51,8.36-13.97,8.7-.22.05-.95.2-1.36.8-.91,1.33.61,3.65.42,3.75-.31.16-4.9-5.47-6.13-9.08l.02.03h0Z" style="fill: none; stroke: #000; stroke-miterlimit: 10;"/>
  <path id="Hair" d="M107.63,89.93l-9.44,5.19c-7.68,4.75,7.82-15.15,6.56-12.96l-3.33,4.82c-5.61,4.26-11.63,10.92-18.74,14.01-.74.32-.94,4.33-.87,5.76l-4.71-7.21-2.57-5.23-1.02.18-.18-.32.18.32-1.36.68c-.46-.26-1.38,1.27-1.5,2.96-.22,2.83-.22,5.35-.13,5.82l.73,3.79s4.48,6.03,4.26,9.15c-.31,4.6-1.06,15.83-2.82,22.9-.83,3.33-2.77,6.44-2.77,6.44-2.56-.96-3.14-.75-5.43.7-2.55,1.61-4.38,5.79-4.76,6.72-2.29,5.62-.03-2.89.54-8.08.34-3.08-1.83-9.73-2.21-13.21-1.43-12.87-.45-34.9,4.69-46.63l4.1-9.38c.75-1.71,2.58-3.35,3.57-4.92,5.38-8.59,10.19-11.83,19.75-14.71,1.07-.32,4.1-1.11,5.16-1.24,6.94-.93,18.44.09,26.27,4.44l4.82,3.41c-.55-.51,1.23,1.34,1.81,1.93,5.04,5.15,6.28,10.2,8.37,16.11,2.35,6.66,3.06,14.12,1.24,22.15.38,8.08-2.04,18.55-4.58,26.35l-2.65,10.1-6.14,25.03-3.98,12.2-3.87-4.97c-1.79-1.96-3.09-3.06-5.52-4.43-2.68-1.52-2.8-.16-6.17-3.93-.15-1.24-2.15-1.67-3.22-3.59.08-5.11,1.54-6.37,2.7-10.57.61-1.9,1.41-1.65,9.8-3.29,3.75-1.13,6.13-5.37,8.64-9.02,3.14-4.55,6.09-8.95,7.6-14.08.53-1.81-.29-4.99.31-7.22.35-1.32,2.1-1.6,2.5-3,1.02-3.61,1.39-2.73,1.33-5.75-.06-2.94-2.61-8.48-3.6-10-6.83-10.48-3.52-26.29-6.12-23.55-.37-.03-1.09,2.1-1.86,3.26,0,0-5.91,6.52-6.08,6.71-.71,1.75-5.64,3.91-7.51,4.4l-1.82,1.74.03.02h0Z" style="fill: none; stroke: #000; stroke-miterlimit: 10;"/>
  <path id="Shoes" d="M167.37,705.79c.92-1.35,2.25-3.2,2.19-5.58-.02-.72-1.57-5.62-2.24-6.73-1.38-2.27-7.14-6.52-7.14-6.52-6.12-3.12-8.07-1.22-12.77-3.4-4.19-1.95-7.05-6.85-9.89-9.1-2.12-1.67-8.46,1.19-8.19.8.29-.42,2.4-1.98,6.22-1.71,3.42.24,6.2,3.44,9.55,4.24s8.09,1.25,10.99,2.05c.31.09,8.93.72,10.45.65,3.34-.16,3.99-.38,5.14-1.29,2.08-1.64,6.61-8.41,3.5-5.96-2.93,2.3-9.2,2.38-9.2,2.38,0,0-27.75-2.52-27.54-3.18.09-.29,13.25,1.85,13.25,1.85,0,0,20.46,4.06,25.15-2.11.16-.31,1.39-1.93,1.12-4.37l-.58-3.98c-.7-3.24-1.96-4.36-6.7-6.01-2.41-.84-5.82-1.86-6.02-1.93l-4.56-2.22c-2.59-1.56-6.24-2.26-6.24-2.26-.3,3.81-.21,11.92-.21,11.92,0,0-.73,5.12-.73,7.22l-1.15,2.02c-.53.02-15.96.99-16.2.99-16.11.35-12.87-2.01-27.31-5.13-7.25-1.57-19.36-8.83-22.95-12.07-4.62-4.16-4.86-8.56-5.34-6.39-.35,1.59-2.23,2.3-3.58,5.22-2.14,4.63-3.16,9.03-3,11.29h0c-.13.03-2.71,7.52-2.71,7.52.09.17-.84,4.97-.84,4.97,0,0-.84,4.87.63,6.83.59.78,4.68.71,7.01,1.71,1.77.76-1.51-.54,0,0,0,0,4.48,1.59,9.92,3.96.38.16,1.49.65,2.87,1.45.49.28,9.59,5.19,6.08,3.31-.33-.18-7.13-3.7-13.85-6.36-5.75-2.28-11.49-3.62-12.59-5.12,0,0-1.22,3.95-2.22,14.29-.62,6.39.17,7.77.17,7.77,0,0,7.9.45,17.95,3.36,3.9,1.13,8.83,1.5,8.83,1.5.48-.52.46.75.7-2.71.21-3.01.3-4.67.32-6.53.02-2.76.06-3.76.98-5.69.41-.87-1.29,12.22-1.29,12.22,0,0,3.03-1.7,5.94-1.54,3.38.19,6.79,2.24,8.21,2.24,2.84,0-13.3-12.56-12.85-12.92.62-.49,12.77,15.28,23.9,18.26,2.51.67,7.39,1.2,15.25,1.4,1.49.04,6.46-.23,8.72-.38,0,0,9.22-.44,12.36-1.31.03,0,4.91-2.09,6.89-4.45l3.63-4.48c-1.96,2.88-6.19,4.5-12.16,4.28-17.34-.66-26.78-1.5-26.78-1.5,0,0-10.61-.94-13.96-4.75-.11-.13-5.49-4.16-11.43-8.8-3.76-2.93-5.19-4.02-6.67-4.79-.22-.12-1.09-.57-2.27-1.24s-9.58-3.14-12.51-4.49c-.55-.25-6.32-4.01-6.32-4.01l-3.04-3.52c-1.91-2.21,2.14-10.24,1.14-10.47" style="fill: none; stroke: #000; stroke-miterlimit: 10;"/>
  <g id="Onelineface">
    <path id="ear_and_left_eye" d="M75.54,105.15c-.16-.26-2.1-3.53-.59-5.94.5-.79,1.55-1.78,2.37-1.54,1.11.32,1.28,2.69,1.25,3.77-.07,2.13-1.14,3.9-1.25,4.06-.7,1.13-1.23,1.36-1.18,2.02.08,1.27,2.15,2.48,2.85,2.02.47-.31.02-1.21,0-3.21-.01-1.15-.04-3.93,1.31-5.34,1.02-1.07,2.44-.96,4.51-1.07,5.49-.29,10.11-2.13,15.5-3.19,0,0,2.41-.48,4.11-.65h.02s.47-.05.96-.08c.33-.02,2.82-.15,3.87-.11,4.62.18,8.45,4.61,8.67,4.87.49.58.74,1.05.59,1.42-.18.45-.9.69-1.42.53-.94-.29,0,0-.87-.9-.94-.97-2.21-3.09-2.61-3.3-.85-.45-4.02-1.19-4.39-1.26-2.67-.49-10.63,3.23-10.68,3.66-.06.47,12.2-3.31,15.23,1.26.41.62,1.41,2.13.83,3.32-.16.33-.86,1.16-1.54,1.07h0c-.95-.14-1.24-1.57-2.61-2.61-.31-.23-.56-.39-.67-.45-.86-.5-1.65-.68-2.06-.75-.02,0-.05,0-.09-.02-.29-.05-.94-.14-1.89-.06-.29.02-.45.05-.63.08-1.02.14-1.89.06-2.49,0-2.09-.2-4.59-.94-4.63-.82-.04.12,2.67.31,4.16,2.26.58.76,1,1.84,1.78,2.26s1.66.71,1.66.71h.01c.88.29,1.43.48,1.89.35.56-.15.85-.74,1.19-1.42.09-.18.25-.54.32-1.03.05-.35.07-.52,0-.69-.04-.1-.17-.32-1.43-.69-.46-.14-.88-.23-1.37-.28-.7-.07-.86.02-.96.1-.18.16-.22.4-.28.79-.05.34-.03.61-.01.84.04.44.13.78.18.94,0,0,.1.31.22.57.32.67,2.58,1.65,5.34,1.31.92-.11,2.5-.45,4.24-1.6" style="fill: none; stroke: #000; stroke-miterlimit: 10;"/>
    <path id="bottom_lip" d="M118.31,135.41c-.55,1.26-2.89,1.53-4.16,1.44-.95-.07-1.63-.37-2.97-.98-1.03-.47-2.44-1.18-4.03-2.25" style="fill: none; stroke: #000; stroke-miterlimit: 10;"/>
    <path id="nose_and_mouth" d="M121.07,113.6c.17-.87,1.35-5.65,3.5-7.46.65-.55,2.2-1.85,4.47-1.86.48,0,1.91.01,3.24.9,1.34.9,1.67,2.08,2.08,1.95.43-.14.65-1.66,0-2.75-1.06-1.78-3.95-1.64-4.39-1.61-1.18.08-2.05.49-3.77,1.31-1.59.76-2.39,1.13-3.06,1.73-2.5,2.23-2.19,6.41-2.14,7.14.03.37.07.63.14,1.14.64,4.22,2.02,5.44,1.49,7.63-.1.42-.27,1.1-.82,1.73-1.43,1.65-3.58.81-4.59,2.35-.54.83-.23,1.53-1.02,2.14-.58.44-1.37.54-1.53.56-.58.07-1.02-.03-1.12-.05-1.79-.36-9.71,1.39-9.59,2.35.04.32.93.25,4.69.82,3.53.53,5.32.81,6.73,1.43,3.09,1.35,3.94,3.17,4.69,2.75,1.17-.65.22-5.61-1.52-6.02-.83-.19-1.9.64-2.46.1-.25-.24-.3-.66-.8-.94-.18-.1-.35-.15-.46-.17" style="fill: none; stroke: #000; stroke-miterlimit: 10;"/>
    <path id="Right_eye" d="M132.28,113.07c-.49-.68-1.32-1.61-2.6-2.21-.54-.25-1.03-.38-1.21-.43-.85-.21-1.55-.2-2.38-.18-.48.01-.89.02-1.43.1-.96.15-1.99.31-2.11.78-.1.38.47.66,1.88,1.93,1.52,1.37,1.73,1.83,2.27,1.77.59-.07.95-.71,1.6-1.88.26-.46.4-.84.33-1.27-.02-.11-.07-.39-.27-.64-.33-.39-.83-.43-1.77-.49-.21-.02-.75-.05-1.47.04-.83.09-1.25.14-1.34.37-.1.25.19.49.94,1.58.43.63.35.57.58.89.51.69,1.02,1.39,1.84,1.77,1.01.46,2.02.22,2.34.14.31-.07,1.01-.43,2.4-1.13.75-.38.98-.51,1.39-.53.6-.03.86.2,1.37.05.53-.16.95-.63.87-.78-.17-.33-2.93.96-3.21.48-.17-.3.87-.85.78-1.69-.06-.54-.56-.91-1.54-1.62-.58-.42-.92-.68-1.48-.88-1.13-.41-2.13-.26-2.45-.21-.42.07-.44.13-1.96.58-.51.15-.94.27-1.22.35" style="fill: none; stroke: #000; stroke-miterlimit: 10;"/>
    <path id="Nostril" d="M116.72,122.84c-.18-.07-.8-.63-1.82-.06-1.13.63-1.21.56-1.56,1.04" style="fill: none; stroke: #000; stroke-miterlimit: 10;"/>
  </g>

</svg>